<?xml version="1.0" encoding="UTF-8"?><svg xmlns="http://www.w3.org/2000/svg" xmlns:xlink="http://www.w3.org/1999/xlink" viewBox="0 0 572 212"><defs><linearGradient id="d" x1="473.56" y1="165.51" x2="512.57" y2="165.51" gradientUnits="userSpaceOnUse"><stop offset="0" stop-color="#5c9fd3"/><stop offset="1" stop-color="#316a99"/></linearGradient><linearGradient id="g" x1="511.58" y1="121.69" x2="550.58" y2="121.69" gradientUnits="userSpaceOnUse"><stop offset="0" stop-color="#336db6"/><stop offset="1" stop-color="#1c5eaa"/></linearGradient><clipPath id="i"><polygon points="355.08 127.7 355.08 115.68 344.67 109.67 339.36 112.73 334.25 115.68 334.25 127.7 344.67 133.72 355.08 127.7" fill="none" stroke-width="0"/></clipPath><clipPath id="j"><rect x="128.37" y="112.99" width="5.6" height="17.4" rx=".61" ry=".61" fill="#fff" stroke-width="0"/></clipPath><clipPath id="k"><path d="M116.11,113.21l-7.27,14.46c-.15.3-.03.66.27.81l3.92,1.97c.3.15.66.03.81-.27l7.27-14.46c.15-.3.03-.66-.27-.81l-3.92-1.97c-.09-.04-.18-.06-.27-.06-.22,0-.43.12-.54.33" fill="#fff" stroke-width="0"/></clipPath><clipPath id="l"><path d="M122.23,113.26l-3.11,15.76c-.06.33.15.64.47.71l4.3.87c.33.07.65-.15.71-.48l3.11-15.76c.06-.33-.15-.64-.47-.71l-4.3-.87s-.08-.01-.12-.01c-.28,0-.54.2-.59.49" fill="#fff" stroke-width="0"/></clipPath></defs><g id="a"><rect x="1.04" y="1.04" width="569.92" height="209.92" fill="#fff" stroke-width="0"/><path d="M569.92,2.08v207.84H2.08V2.08h567.84M572,0H0v212h572V0h0Z" fill="#d13393" stroke-width="0"/></g><g id="b"><line x1="253.5" y1="121.5" x2="311.74" y2="121.5" fill="none" stroke="#d1d3d4" stroke-width="5"/><polygon points="309.55 128.98 322.5 121.5 309.55 114.02 309.55 128.98" fill="#d1d3d4" stroke-width="0"/><line x1="362" y1="121.5" x2="420.24" y2="121.5" fill="none" stroke="#d1d3d4" stroke-width="5"/><polygon points="418.05 128.98 431 121.5 418.05 114.02 418.05 128.98" fill="#d1d3d4" stroke-width="0"/><line x1="452" y1="121.5" x2="493.5" y2="77.5" fill="none" stroke="#d1d3d4" stroke-width="5"/><line x1="493.5" y1="164.5" x2="531.5" y2="121.5" fill="none" stroke="#d1d3d4" stroke-width="5"/><line x1="493.5" y1="164.5" x2="453.5" y2="122.5" fill="none" stroke="#d1d3d4" stroke-width="5"/><line x1="531.5" y1="121.5" x2="493.5" y2="77.5" fill="none" stroke="#d1d3d4" stroke-width="5"/><line x1="125.5" y1="121.5" x2="167.74" y2="121.5" fill="none" stroke="#d1d3d4" stroke-width="5"/><polygon points="165.55 128.98 178.5 121.5 165.55 114.02 165.55 128.98" fill="#d1d3d4" stroke-width="0"/><rect x="0" y="-.5" width="572" height="41" fill="#d13393" stroke-width="0"/></g><g id="c"><path d="M23.18,18.68h-2.56l2.88-8.73h3.24l2.88,8.73h-2.56l-1.91-6.32h-.07l-1.91,6.32ZM22.71,15.24h4.81v1.77h-4.81v-1.77Z" fill="#fff" stroke-width="0"/><path d="M34.74,15.82v-3.68h2.35v6.55h-2.23v-1.24h-.07c-.14.42-.39.74-.75.98-.36.23-.78.35-1.27.35-.46,0-.86-.11-1.2-.32-.34-.21-.61-.5-.8-.87-.19-.37-.28-.79-.29-1.27v-4.18h2.35v3.68c0,.32.09.58.25.76.16.19.39.28.69.28.2,0,.37-.04.51-.13.14-.08.25-.2.33-.36s.12-.34.11-.56Z" fill="#fff" stroke-width="0"/><path d="M42.19,12.14v1.7h-4.31v-1.7h4.31ZM38.71,10.57h2.35v6.01c0,.09.02.17.05.23s.08.11.15.14c.06.03.15.04.25.04.07,0,.15,0,.25-.03s.17-.03.21-.04l.34,1.65c-.1.03-.25.07-.45.12-.19.05-.43.08-.69.09-.54.03-.99-.03-1.36-.17-.37-.14-.64-.36-.83-.67-.18-.3-.27-.68-.27-1.14v-6.23Z" fill="#fff" stroke-width="0"/><path d="M46.23,18.8c-.71,0-1.32-.14-1.82-.42-.51-.28-.89-.68-1.16-1.18-.27-.51-.4-1.1-.4-1.77s.13-1.26.4-1.77c.27-.51.66-.9,1.16-1.18.51-.28,1.11-.42,1.82-.42s1.32.14,1.82.42c.51.28.89.68,1.16,1.18.27.51.4,1.1.4,1.77s-.14,1.26-.4,1.77c-.27.51-.66.9-1.16,1.18-.51.28-1.11.42-1.82.42ZM46.24,17.07c.2,0,.37-.07.52-.2.15-.13.26-.32.34-.57s.12-.54.12-.88-.04-.64-.12-.88c-.08-.25-.19-.44-.34-.57-.15-.13-.32-.2-.52-.2-.21,0-.39.07-.54.2-.15.13-.27.32-.35.57-.08.25-.12.54-.12.88s.04.64.12.88c.08.25.19.44.35.57.15.13.33.2.54.2Z" fill="#fff" stroke-width="0"/><path d="M50.57,18.68v-6.55h2.23v1.24h.07c.14-.41.37-.73.7-.97.33-.24.72-.36,1.18-.36s.86.12,1.19.36c.33.24.53.56.6.96h.07c.11-.4.35-.72.71-.96.36-.24.78-.36,1.27-.36.63,0,1.14.2,1.53.61s.59.94.59,1.61v4.41h-2.35v-3.82c0-.29-.07-.51-.22-.68-.14-.16-.34-.25-.58-.25s-.43.08-.57.25c-.14.16-.21.39-.21.68v3.82h-2.25v-3.82c0-.29-.07-.51-.22-.68-.15-.16-.34-.25-.58-.25-.16,0-.3.04-.42.11-.12.07-.21.18-.27.32-.06.14-.1.3-.1.49v3.82h-2.35Z" fill="#fff" stroke-width="0"/><path d="M63.68,18.79c-.42,0-.79-.07-1.11-.21-.32-.14-.57-.35-.75-.63s-.27-.64-.27-1.07c0-.36.06-.66.18-.92.12-.25.29-.46.51-.62.22-.16.47-.29.77-.37.29-.08.61-.14.94-.17.37-.03.66-.06.88-.1.22-.04.38-.1.48-.17s.15-.18.15-.3v-.02c0-.17-.07-.3-.2-.39s-.3-.14-.5-.14c-.22,0-.41.05-.55.15s-.23.25-.25.45h-2.17c.03-.4.16-.77.38-1.1.23-.34.56-.61.99-.81s.98-.3,1.63-.3c.47,0,.89.05,1.26.16s.69.26.95.46c.26.19.46.42.6.68.14.26.21.54.21.85v4.48h-2.2v-.92h-.05c-.13.24-.29.44-.48.59s-.4.26-.63.33c-.24.07-.5.1-.78.1ZM64.45,17.3c.18,0,.35-.04.5-.11.16-.07.29-.18.39-.32s.15-.31.15-.51v-.55c-.06.03-.13.05-.2.07-.07.02-.14.04-.22.06-.08.02-.16.04-.25.06-.09.02-.18.03-.27.05-.18.03-.33.07-.45.14-.11.06-.2.14-.26.23-.06.09-.08.2-.08.31,0,.18.06.32.19.42.13.1.29.14.49.14Z" fill="#fff" stroke-width="0"/><path d="M72.85,12.14v1.7h-4.31v-1.7h4.31ZM69.38,10.57h2.35v6.01c0,.09.02.17.05.23s.08.11.15.14c.06.03.15.04.25.04.07,0,.15,0,.25-.03s.17-.03.21-.04l.34,1.65c-.1.03-.25.07-.45.12-.19.05-.43.08-.69.09-.54.03-.99-.03-1.36-.17-.37-.14-.64-.36-.83-.67-.18-.3-.27-.68-.27-1.14v-6.23Z" fill="#fff" stroke-width="0"/><path d="M73.81,18.68v-6.55h2.35v6.55h-2.35ZM74.99,11.46c-.32,0-.6-.11-.82-.32-.23-.21-.34-.46-.34-.76s.11-.55.34-.76c.23-.21.5-.32.82-.32s.59.1.82.32c.23.21.34.46.34.76s-.11.55-.34.76c-.23.21-.5.32-.82.32Z" fill="#fff" stroke-width="0"/><path d="M80.51,18.8c-.71,0-1.32-.14-1.82-.42-.51-.28-.89-.68-1.16-1.18-.27-.51-.4-1.1-.4-1.77s.13-1.26.4-1.77c.27-.51.66-.9,1.16-1.18.51-.28,1.11-.42,1.82-.42.64,0,1.2.12,1.67.35s.83.56,1.09.98c.26.42.39.92.39,1.48h-2.18c-.03-.34-.13-.61-.3-.79-.17-.18-.38-.27-.64-.27-.2,0-.38.06-.54.18-.15.12-.27.3-.36.53-.08.24-.13.53-.13.89s.04.66.13.89c.09.24.2.41.36.53.15.12.33.18.54.18.17,0,.33-.04.46-.12.13-.08.24-.2.33-.36s.13-.35.15-.58h2.18c0,.58-.14,1.08-.4,1.51-.26.43-.62.76-1.08.99s-1.02.35-1.67.35Z" fill="#fff" stroke-width="0"/><path d="M86.45,18.79c-.42,0-.79-.07-1.11-.21-.32-.14-.57-.35-.75-.63s-.27-.64-.27-1.07c0-.36.06-.66.18-.92.12-.25.29-.46.51-.62.22-.16.47-.29.77-.37.29-.08.61-.14.94-.17.37-.03.66-.06.88-.1.22-.04.38-.1.48-.17s.15-.18.15-.3v-.02c0-.17-.07-.3-.2-.39s-.3-.14-.5-.14c-.22,0-.41.05-.55.15s-.23.25-.25.45h-2.17c.03-.4.16-.77.38-1.1.23-.34.56-.61.99-.81s.98-.3,1.63-.3c.47,0,.89.05,1.26.16s.69.26.95.46c.26.19.46.42.6.68.14.26.21.54.21.85v4.48h-2.2v-.92h-.05c-.13.24-.29.44-.48.59s-.4.26-.63.33c-.24.07-.5.1-.78.1ZM87.22,17.3c.18,0,.35-.04.5-.11.16-.07.29-.18.39-.32s.15-.31.15-.51v-.55c-.06.03-.13.05-.2.07-.07.02-.14.04-.22.06-.08.02-.16.04-.25.06-.09.02-.18.03-.27.05-.18.03-.33.07-.45.14-.11.06-.2.14-.26.23-.06.09-.08.2-.08.31,0,.18.06.32.19.42.13.1.29.14.49.14Z" fill="#fff" stroke-width="0"/><path d="M94.07,9.96v8.73h-2.35v-8.73h2.35Z" fill="#fff" stroke-width="0"/><path d="M97.62,9.96v8.73h-2.35v-8.73h2.35Z" fill="#fff" stroke-width="0"/><path d="M100.24,21.13c-.27,0-.53-.02-.77-.06-.24-.04-.46-.1-.64-.17l.51-1.67c.29.1.54.15.74.13.2-.01.35-.1.45-.27l.05-.12-2.3-6.83h2.45l1.06,4.53h.07l1.07-4.53h2.47l-2.39,7.09c-.12.36-.29.68-.52.97s-.52.51-.89.68c-.37.17-.82.25-1.37.25Z" fill="#fff" stroke-width="0"/><path d="M111.61,18.8c-.71,0-1.32-.14-1.82-.42-.51-.28-.89-.68-1.16-1.18-.27-.51-.4-1.1-.4-1.77s.13-1.26.4-1.77c.27-.51.66-.9,1.16-1.18.51-.28,1.11-.42,1.82-.42.64,0,1.2.12,1.67.35.47.23.83.56,1.09.98.26.42.39.92.39,1.48h-2.18c-.03-.34-.13-.61-.3-.79-.17-.18-.38-.27-.64-.27-.21,0-.38.06-.54.18-.15.12-.27.3-.36.53-.08.24-.13.53-.13.89s.04.66.13.89c.09.24.2.41.36.53.15.12.33.18.54.18.17,0,.33-.04.46-.12s.24-.2.33-.36.13-.35.15-.58h2.18c0,.58-.14,1.08-.4,1.51-.26.43-.62.76-1.08.99-.47.23-1.03.35-1.67.35Z" fill="#fff" stroke-width="0"/><path d="M118.89,18.8c-.71,0-1.32-.14-1.82-.42-.5-.28-.89-.68-1.16-1.18-.27-.51-.4-1.1-.4-1.77s.13-1.26.4-1.77c.27-.51.66-.9,1.16-1.18.51-.28,1.11-.42,1.82-.42s1.32.14,1.82.42c.5.28.89.68,1.16,1.18.27.51.4,1.1.4,1.77s-.13,1.26-.4,1.77c-.27.51-.66.9-1.16,1.18-.51.28-1.11.42-1.82.42ZM118.91,17.07c.2,0,.37-.07.52-.2.15-.13.26-.32.34-.57.08-.25.12-.54.12-.88s-.04-.64-.12-.88c-.08-.25-.19-.44-.34-.57-.14-.13-.32-.2-.52-.2-.21,0-.39.07-.54.2-.15.13-.27.32-.34.57-.08.25-.12.54-.12.88s.04.64.12.88c.08.25.19.44.34.57.15.13.33.2.54.2Z" fill="#fff" stroke-width="0"/><path d="M125.59,9.96v8.73h-2.35v-8.73h2.35Z" fill="#fff" stroke-width="0"/><path d="M129.14,9.96v8.73h-2.35v-8.73h2.35Z" fill="#fff" stroke-width="0"/><path d="M133.47,18.8c-.7,0-1.3-.13-1.8-.4-.5-.27-.89-.65-1.16-1.16s-.41-1.11-.41-1.81.14-1.27.41-1.77c.27-.51.66-.9,1.16-1.18s1.08-.42,1.76-.42c.49,0,.94.08,1.34.23.4.15.74.38,1.03.67.28.29.5.64.66,1.06.15.42.23.88.23,1.4v.55h-5.85v-1.3h3.68c0-.19-.05-.35-.14-.5-.09-.14-.22-.26-.37-.34-.15-.08-.33-.12-.53-.12s-.37.04-.52.12-.29.19-.38.33c-.09.14-.15.31-.15.5v1.4c0,.21.04.4.13.56.09.17.21.29.38.39s.36.14.6.14c.16,0,.31-.02.45-.07s.25-.11.35-.2c.1-.09.17-.19.21-.31h2.15c-.07.45-.25.85-.52,1.18-.28.33-.64.59-1.09.78-.45.18-.98.27-1.59.27Z" fill="#fff" stroke-width="0"/><path d="M140.78,18.8c-.71,0-1.32-.14-1.82-.42-.5-.28-.89-.68-1.16-1.18-.27-.51-.4-1.1-.4-1.77s.13-1.26.4-1.77c.27-.51.66-.9,1.16-1.18.51-.28,1.11-.42,1.82-.42.64,0,1.2.12,1.67.35.47.23.83.56,1.09.98.26.42.39.92.39,1.48h-2.18c-.03-.34-.13-.61-.3-.79-.17-.18-.38-.27-.64-.27-.21,0-.38.06-.54.18-.15.12-.27.3-.36.53-.09.24-.13.53-.13.89s.04.66.13.89c.08.24.2.41.36.53.15.12.33.18.54.18.17,0,.33-.04.46-.12s.24-.2.33-.36.13-.35.15-.58h2.18c0,.58-.14,1.08-.4,1.51-.26.43-.62.76-1.08.99-.47.23-1.03.35-1.67.35Z" fill="#fff" stroke-width="0"/><path d="M148.8,12.14v1.7h-4.31v-1.7h4.31ZM145.33,10.57h2.35v6.01c0,.09.02.17.05.23s.08.11.14.14.15.04.25.04c.07,0,.15,0,.25-.03.1-.02.17-.03.21-.04l.34,1.65c-.1.03-.25.07-.45.12s-.43.08-.69.09c-.54.03-.99-.03-1.36-.17-.37-.14-.64-.36-.83-.67-.18-.3-.27-.68-.27-1.14v-6.23Z" fill="#fff" stroke-width="0"/><path d="M23.46,31.77c-.47,0-.89-.12-1.28-.37s-.7-.62-.94-1.11-.35-1.12-.35-1.88.12-1.43.37-1.93c.25-.49.56-.86.95-1.09.39-.23.8-.35,1.23-.35.32,0,.61.06.85.17.24.11.45.26.61.45.17.19.29.39.38.61h.03v-3.32h2.35v8.73h-2.34v-1.07h-.05c-.09.22-.22.42-.39.59s-.37.31-.61.41c-.24.1-.51.15-.82.15ZM24.33,29.96c.22,0,.4-.06.56-.19s.27-.31.36-.54c.08-.23.13-.51.13-.82s-.04-.6-.13-.83c-.08-.23-.2-.41-.36-.53s-.34-.19-.56-.19-.4.06-.55.19c-.15.12-.27.3-.35.53-.08.23-.12.51-.12.83s.04.6.12.83.2.41.35.53c.15.12.34.19.55.19Z" fill="#fff" stroke-width="0"/><path d="M30.66,31.79c-.42,0-.79-.07-1.11-.21-.32-.14-.57-.35-.75-.63s-.27-.64-.27-1.07c0-.36.06-.66.18-.92.12-.25.29-.46.51-.62.22-.16.47-.29.77-.37.29-.08.61-.14.94-.17.37-.03.66-.06.88-.1.22-.04.38-.1.48-.17s.15-.18.15-.3v-.02c0-.17-.07-.3-.2-.39s-.3-.14-.5-.14c-.22,0-.41.05-.55.15s-.23.25-.25.45h-2.17c.03-.4.16-.77.38-1.1.23-.34.56-.61.99-.81s.98-.3,1.63-.3c.47,0,.89.05,1.26.16s.69.26.95.46c.26.19.46.42.6.68.14.26.21.54.21.85v4.48h-2.2v-.92h-.05c-.13.24-.29.44-.48.59s-.4.26-.63.33c-.24.07-.5.1-.78.1ZM31.42,30.3c.18,0,.35-.04.5-.11.16-.07.29-.18.39-.32s.15-.31.15-.51v-.55c-.06.03-.13.05-.2.07-.07.02-.14.04-.22.06-.08.02-.16.04-.25.06-.09.02-.18.03-.27.05-.18.03-.33.07-.45.14-.11.06-.2.14-.26.23-.06.09-.08.2-.08.31,0,.18.06.32.19.42.13.1.29.14.49.14Z" fill="#fff" stroke-width="0"/><path d="M39.83,25.14v1.7h-4.31v-1.7h4.31ZM36.35,23.57h2.35v6.01c0,.09.02.17.05.23s.08.11.15.14c.06.03.15.04.25.04.07,0,.15,0,.25-.03s.17-.03.21-.04l.34,1.65c-.1.03-.25.07-.45.12-.19.05-.43.08-.69.09-.54.03-.99-.03-1.36-.17-.37-.14-.64-.36-.83-.67-.18-.3-.27-.68-.27-1.14v-6.23Z" fill="#fff" stroke-width="0"/><path d="M42.61,31.79c-.42,0-.79-.07-1.11-.21-.32-.14-.57-.35-.75-.63s-.27-.64-.27-1.07c0-.36.06-.66.18-.92.12-.25.29-.46.51-.62.22-.16.47-.29.77-.37.29-.08.61-.14.94-.17.37-.03.66-.06.88-.1.22-.04.38-.1.48-.17s.15-.18.15-.3v-.02c0-.17-.07-.3-.2-.39s-.3-.14-.5-.14c-.22,0-.41.05-.55.15s-.23.25-.25.45h-2.17c.03-.4.16-.77.38-1.1.23-.34.56-.61.99-.81s.98-.3,1.63-.3c.47,0,.89.05,1.26.16s.69.26.95.46c.26.19.46.42.6.68.14.26.21.54.21.85v4.48h-2.2v-.92h-.05c-.13.24-.29.44-.48.59s-.4.26-.63.33c-.24.07-.5.1-.78.1ZM43.37,30.3c.18,0,.35-.04.5-.11.16-.07.29-.18.39-.32s.15-.31.15-.51v-.55c-.06.03-.13.05-.2.07-.07.02-.14.04-.22.06-.08.02-.16.04-.25.06-.09.02-.18.03-.27.05-.18.03-.33.07-.45.14-.11.06-.2.14-.26.23-.06.09-.08.2-.08.31,0,.18.06.32.19.42.13.1.29.14.49.14Z" fill="#fff" stroke-width="0"/><path d="M54.18,25.14v1.7h-4.38v-1.7h4.38ZM50.63,31.68v-6.73c0-.54.1-.99.29-1.34.19-.35.47-.62.82-.8.35-.18.77-.26,1.24-.26.3,0,.59.02.87.07.28.05.49.09.63.12l-.34,1.69c-.08-.03-.18-.05-.3-.06s-.21-.02-.3-.02c-.22,0-.37.05-.45.14s-.12.22-.12.37v6.84h-2.35Z" fill="#fff" stroke-width="0"/><path d="M55.08,31.68v-6.55h2.28v1.24h.07c.12-.46.31-.8.57-1.01.26-.21.56-.32.91-.32.1,0,.2,0,.3.02.1.02.2.04.29.07v2.01c-.12-.04-.26-.07-.43-.09s-.32-.03-.44-.03c-.23,0-.44.05-.62.16-.18.1-.33.25-.43.44s-.16.4-.16.65v3.41h-2.35Z" fill="#fff" stroke-width="0"/><path d="M63.06,31.8c-.71,0-1.32-.14-1.82-.42-.51-.28-.89-.68-1.16-1.18-.27-.51-.4-1.1-.4-1.77s.13-1.26.4-1.77c.27-.51.66-.9,1.16-1.18.51-.28,1.11-.42,1.82-.42s1.32.14,1.82.42c.51.28.89.68,1.16,1.18.27.51.4,1.1.4,1.77s-.14,1.26-.4,1.77c-.27.51-.66.9-1.16,1.18-.51.28-1.11.42-1.82.42ZM63.08,30.07c.2,0,.37-.07.52-.2.15-.13.26-.32.34-.57s.12-.54.12-.88-.04-.64-.12-.88c-.08-.25-.19-.44-.34-.57-.15-.13-.32-.2-.52-.2-.21,0-.39.07-.54.2-.15.13-.27.32-.35.57-.08.25-.12.54-.12.88s.04.64.12.88c.08.25.19.44.35.57.15.13.33.2.54.2Z" fill="#fff" stroke-width="0"/><path d="M67.41,31.68v-6.55h2.23v1.24h.07c.14-.41.37-.73.7-.97.33-.24.72-.36,1.18-.36s.86.12,1.19.36c.33.24.53.56.6.96h.07c.11-.4.35-.72.71-.96.36-.24.78-.36,1.27-.36.63,0,1.14.2,1.53.61s.59.94.59,1.61v4.41h-2.35v-3.82c0-.29-.07-.51-.22-.68-.14-.16-.34-.25-.58-.25s-.43.08-.57.25c-.14.16-.21.39-.21.68v3.82h-2.25v-3.82c0-.29-.07-.51-.22-.68-.15-.16-.34-.25-.58-.25-.16,0-.3.04-.42.11-.12.07-.21.18-.27.32-.06.14-.1.3-.1.49v3.82h-2.35Z" fill="#fff" stroke-width="0"/><path d="M84.98,25.14v1.7h-4.31v-1.7h4.31ZM81.5,23.57h2.35v6.01c0,.09.02.17.05.23s.08.11.15.14c.06.03.15.04.25.04.07,0,.15,0,.25-.03s.17-.03.21-.04l.34,1.65c-.1.03-.25.07-.45.12-.19.05-.43.08-.69.09-.54.03-.99-.03-1.36-.17-.37-.14-.64-.36-.83-.67-.18-.3-.27-.68-.27-1.14v-6.23Z" fill="#fff" stroke-width="0"/><path d="M88.42,28v3.68h-2.35v-8.73h2.27v3.43h.07c.15-.42.39-.74.74-.98s.76-.35,1.24-.35.87.11,1.21.32c.34.21.61.5.8.87.19.37.28.79.28,1.27v4.18h-2.35v-3.68c0-.32-.08-.58-.24-.76-.16-.18-.4-.28-.7-.28-.19,0-.36.04-.5.13-.14.08-.25.2-.33.36s-.12.34-.12.56Z" fill="#fff" stroke-width="0"/><path d="M96.96,31.8c-.7,0-1.3-.13-1.8-.4-.5-.27-.89-.65-1.16-1.16-.27-.5-.41-1.11-.41-1.81s.14-1.27.41-1.77c.27-.51.66-.9,1.15-1.18s1.08-.42,1.76-.42c.49,0,.94.08,1.34.23.4.15.74.38,1.03.67.28.29.5.64.66,1.06.15.42.23.88.23,1.4v.55h-5.85v-1.3h3.68c0-.19-.05-.35-.14-.5s-.22-.26-.37-.34-.33-.12-.53-.12-.37.04-.52.12c-.16.08-.29.19-.38.33-.1.14-.15.31-.15.5v1.4c0,.21.04.4.13.56.09.17.21.29.38.39.16.09.36.14.6.14.16,0,.31-.02.45-.07.13-.05.25-.11.35-.2.1-.09.17-.19.21-.31h2.15c-.07.45-.25.85-.52,1.18-.28.33-.64.59-1.09.78-.45.18-.98.27-1.59.27Z" fill="#fff" stroke-width="0"/><path d="M103.51,31.68v-6.55h2.35v6.55h-2.35ZM104.69,24.46c-.32,0-.6-.11-.82-.32-.23-.21-.34-.46-.34-.76s.11-.55.34-.76c.23-.21.5-.32.82-.32s.59.1.82.32c.23.21.34.46.34.76s-.11.55-.34.76c-.23.21-.5.32-.82.32Z" fill="#fff" stroke-width="0"/><path d="M109.41,28v3.68h-2.35v-6.55h2.23v1.24h.07c.14-.41.39-.74.75-.98s.78-.35,1.26-.35.87.11,1.21.32c.34.21.61.5.8.87.19.37.28.79.28,1.27v4.18h-2.35v-3.68c0-.32-.08-.58-.25-.76-.17-.18-.4-.28-.69-.28-.19,0-.36.04-.5.13-.14.08-.25.2-.33.36s-.12.34-.12.56Z" fill="#fff" stroke-width="0"/><path d="M118.71,25.14v1.7h-4.31v-1.7h4.31ZM115.23,23.57h2.35v6.01c0,.09.02.17.05.23s.08.11.14.14.15.04.25.04c.07,0,.15,0,.25-.03.1-.02.17-.03.21-.04l.34,1.65c-.1.03-.25.07-.45.12s-.43.08-.69.09c-.54.03-.99-.03-1.36-.17-.37-.14-.64-.36-.83-.67-.18-.3-.27-.68-.27-1.14v-6.23Z" fill="#fff" stroke-width="0"/><path d="M122.73,31.8c-.7,0-1.3-.13-1.8-.4-.5-.27-.89-.65-1.16-1.16s-.41-1.11-.41-1.81.14-1.27.41-1.77c.27-.51.66-.9,1.16-1.18s1.08-.42,1.76-.42c.49,0,.94.08,1.34.23.4.15.74.38,1.03.67.28.29.5.64.66,1.06.15.42.23.88.23,1.4v.55h-5.85v-1.3h3.68c0-.19-.05-.35-.14-.5-.09-.14-.22-.26-.37-.34-.15-.08-.33-.12-.53-.12s-.37.04-.52.12-.29.19-.38.33c-.09.14-.15.31-.15.5v1.4c0,.21.04.4.13.56.09.17.21.29.38.39s.36.14.6.14c.16,0,.31-.02.45-.07s.25-.11.35-.2c.1-.09.17-.19.21-.31h2.15c-.07.45-.25.85-.52,1.18-.28.33-.64.59-1.09.78-.45.18-.98.27-1.59.27Z" fill="#fff" stroke-width="0"/><path d="M126.89,31.68v-6.55h2.28v1.24h.07c.12-.46.31-.8.57-1.01s.56-.32.91-.32c.1,0,.2,0,.3.02s.2.04.29.07v2.01c-.12-.04-.26-.07-.43-.09-.17-.02-.32-.03-.44-.03-.23,0-.44.05-.62.16-.18.1-.33.25-.43.44s-.16.4-.16.65v3.41h-2.35Z" fill="#fff" stroke-width="0"/><path d="M134.44,28v3.68h-2.35v-6.55h2.23v1.24h.07c.14-.41.39-.74.75-.98s.78-.35,1.26-.35.87.11,1.21.32c.34.21.61.5.8.87.19.37.28.79.28,1.27v4.18h-2.35v-3.68c0-.32-.08-.58-.25-.76-.17-.18-.4-.28-.69-.28-.19,0-.36.04-.5.13-.14.08-.25.2-.33.36-.08.15-.12.34-.12.56Z" fill="#fff" stroke-width="0"/><path d="M142.98,31.8c-.7,0-1.3-.13-1.8-.4-.5-.27-.89-.65-1.16-1.16s-.41-1.11-.41-1.81.14-1.27.41-1.77c.27-.51.66-.9,1.16-1.18s1.08-.42,1.76-.42c.49,0,.94.08,1.34.23.4.15.74.38,1.03.67.28.29.5.64.66,1.06.15.42.23.88.23,1.4v.55h-5.85v-1.3h3.68c0-.19-.05-.35-.14-.5-.09-.14-.22-.26-.37-.34-.15-.08-.33-.12-.53-.12s-.37.04-.52.12-.29.19-.38.33c-.09.14-.15.31-.15.5v1.4c0,.21.04.4.13.56.09.17.21.29.38.39s.36.14.6.14c.16,0,.31-.02.45-.07s.25-.11.35-.2c.1-.09.17-.19.21-.31h2.15c-.07.45-.25.85-.52,1.18-.28.33-.64.59-1.09.78-.45.18-.98.27-1.59.27Z" fill="#fff" stroke-width="0"/><path d="M151.05,25.14v1.7h-4.31v-1.7h4.31ZM147.57,23.57h2.35v6.01c0,.09.02.17.05.23s.08.11.14.14.15.04.25.04c.07,0,.15,0,.25-.03.1-.02.17-.03.21-.04l.34,1.65c-.1.03-.25.07-.45.12s-.43.08-.69.09c-.54.03-.99-.03-1.36-.17-.37-.14-.64-.36-.83-.67-.18-.3-.27-.68-.27-1.14v-6.23Z" fill="#fff" stroke-width="0"/><path d="M189.92,12.68c-.02-.28-.13-.51-.32-.66-.19-.16-.47-.24-.86-.24-.24,0-.44.03-.6.09-.16.06-.27.14-.34.24-.07.1-.11.21-.11.34,0,.11.01.2.06.28.04.08.11.16.21.23.1.07.22.13.37.18.15.05.33.1.54.15l.72.15c.48.1.9.24,1.24.4s.62.36.84.59c.22.23.38.48.48.76s.16.59.16.92c0,.57-.15,1.06-.43,1.46-.28.4-.69.7-1.22.91-.53.21-1.16.31-1.9.31s-1.42-.11-1.98-.34-1-.57-1.31-1.04-.47-1.07-.47-1.8h2.25c.01.27.08.49.2.67.12.18.29.32.5.41s.48.14.78.14c.25,0,.46-.03.64-.09.17-.06.3-.15.39-.26.09-.11.13-.24.14-.38,0-.13-.05-.25-.13-.35-.08-.1-.22-.19-.41-.27s-.45-.16-.77-.23l-.87-.19c-.77-.17-1.38-.45-1.83-.84-.44-.39-.67-.93-.66-1.61,0-.55.15-1.04.45-1.46s.72-.74,1.25-.97c.53-.23,1.14-.35,1.83-.35s1.31.12,1.83.35c.51.24.91.57,1.19.99.28.43.42.93.42,1.5h-2.27Z" fill="#fff" stroke-width="0"/><path d="M197.14,12.14v1.7h-4.31v-1.7h4.31ZM193.67,10.57h2.35v6.01c0,.09.02.17.05.23s.08.11.14.14.15.04.25.04c.07,0,.15,0,.25-.03.09-.02.17-.03.21-.04l.34,1.65c-.11.03-.25.07-.45.12-.2.05-.43.08-.69.09-.54.03-.99-.03-1.36-.17-.37-.14-.64-.36-.83-.67-.18-.3-.27-.68-.27-1.14v-6.23Z" fill="#fff" stroke-width="0"/><path d="M201.18,18.8c-.71,0-1.32-.14-1.82-.42-.51-.28-.89-.68-1.16-1.18-.27-.51-.4-1.1-.4-1.77s.13-1.26.4-1.77c.27-.51.66-.9,1.16-1.18.5-.28,1.11-.42,1.82-.42s1.32.14,1.82.42.89.68,1.16,1.18c.27.51.41,1.1.41,1.77s-.14,1.26-.41,1.77c-.27.51-.66.9-1.16,1.18s-1.11.42-1.82.42ZM201.2,17.07c.2,0,.37-.07.52-.2.14-.13.26-.32.34-.57.08-.25.12-.54.12-.88s-.04-.64-.12-.88c-.08-.25-.19-.44-.34-.57-.15-.13-.32-.2-.52-.2-.21,0-.39.07-.54.2-.15.13-.27.32-.35.57-.08.25-.12.54-.12.88s.04.64.12.88.19.44.35.57c.15.13.33.2.54.2Z" fill="#fff" stroke-width="0"/><path d="M205.53,18.68v-6.55h2.28v1.24h.07c.12-.46.31-.8.57-1.01.26-.21.57-.32.91-.32.1,0,.2,0,.3.02.1.02.2.04.29.07v2.01c-.12-.04-.26-.07-.43-.09-.17-.02-.32-.03-.44-.03-.23,0-.44.05-.62.16-.18.1-.33.25-.43.44-.1.19-.16.4-.16.65v3.41h-2.35Z" fill="#fff" stroke-width="0"/><path d="M213.49,18.8c-.7,0-1.3-.13-1.8-.4-.5-.27-.89-.65-1.16-1.16s-.41-1.11-.41-1.81.14-1.27.41-1.77.66-.9,1.16-1.18,1.08-.42,1.76-.42c.49,0,.94.08,1.34.23.4.15.74.38,1.03.67.28.29.5.64.66,1.06.15.42.23.88.23,1.4v.55h-5.85v-1.3h3.68c0-.19-.05-.35-.14-.5-.09-.14-.22-.26-.37-.34-.15-.08-.33-.12-.53-.12s-.37.04-.52.12c-.16.08-.29.19-.38.33-.09.14-.15.31-.15.5v1.4c0,.21.04.4.13.56.09.17.21.29.38.39.16.09.36.14.6.14.16,0,.31-.02.45-.07.13-.05.25-.11.35-.2.1-.09.17-.19.21-.31h2.15c-.07.45-.25.85-.52,1.18-.28.33-.64.59-1.09.78-.45.18-.98.27-1.59.27Z" fill="#fff" stroke-width="0"/><path d="M220.03,18.68v-6.55h2.35v6.55h-2.35ZM221.21,11.46c-.32,0-.59-.11-.82-.32-.23-.21-.34-.46-.34-.76s.11-.55.34-.76c.23-.21.5-.32.82-.32s.59.1.82.32c.23.21.34.46.34.76s-.11.55-.34.76c-.23.21-.5.32-.82.32Z" fill="#fff" stroke-width="0"/><path d="M227.48,12.14v1.7h-4.31v-1.7h4.31ZM224.01,10.57h2.35v6.01c0,.09.02.17.05.23s.08.11.15.14c.06.03.15.04.25.04.07,0,.15,0,.25-.03.1-.02.17-.03.21-.04l.34,1.65c-.1.03-.25.07-.45.12s-.43.08-.69.09c-.54.03-.99-.03-1.36-.17s-.64-.36-.83-.67c-.18-.3-.27-.68-.27-1.14v-6.23Z" fill="#fff" stroke-width="0"/><path d="M230.82,18.68v-6.55h2.35v6.55h-2.35ZM232,11.46c-.32,0-.6-.11-.82-.32-.23-.21-.34-.46-.34-.76s.11-.55.34-.76c.23-.21.5-.32.82-.32s.59.1.82.32c.23.21.34.46.34.76s-.11.55-.34.76c-.23.21-.5.32-.82.32Z" fill="#fff" stroke-width="0"/><path d="M236.72,15v3.68h-2.35v-6.55h2.23v1.24h.07c.14-.41.39-.74.75-.98s.78-.35,1.26-.35.87.11,1.21.32c.34.21.61.5.8.87.19.37.28.79.28,1.27v4.18h-2.35v-3.68c0-.32-.08-.58-.25-.76-.17-.18-.4-.28-.69-.28-.19,0-.36.04-.5.13-.14.08-.25.2-.33.36-.08.15-.12.34-.12.56Z" fill="#fff" stroke-width="0"/><path d="M246.33,18.79c-.42,0-.79-.07-1.11-.21s-.57-.35-.75-.63-.27-.64-.27-1.07c0-.36.06-.66.18-.92s.29-.46.51-.62c.22-.16.47-.29.76-.37.29-.08.61-.14.94-.17.37-.03.66-.06.88-.1.22-.04.38-.1.48-.17.1-.08.15-.18.15-.3v-.02c0-.17-.07-.3-.2-.39-.13-.09-.3-.14-.5-.14-.22,0-.41.05-.55.15s-.23.25-.25.45h-2.16c.03-.4.16-.77.38-1.1.23-.34.56-.61.99-.81s.98-.3,1.63-.3c.47,0,.89.05,1.26.16s.69.26.95.46c.26.19.46.42.6.68.14.26.21.54.21.85v4.48h-2.2v-.92h-.05c-.13.24-.29.44-.48.59-.19.15-.4.26-.63.33s-.5.1-.78.1ZM247.1,17.3c.18,0,.35-.04.5-.11.16-.07.29-.18.39-.32s.15-.31.15-.51v-.55c-.06.03-.13.05-.2.07-.07.02-.14.04-.22.06-.08.02-.16.04-.25.06s-.18.03-.27.05c-.18.03-.33.07-.45.14s-.2.14-.26.23-.08.2-.08.31c0,.18.06.32.19.42s.29.14.49.14Z" fill="#fff" stroke-width="0"/><path d="M175.68,31.8c-.71,0-1.32-.14-1.82-.42s-.89-.68-1.16-1.18c-.27-.51-.41-1.1-.41-1.77s.13-1.26.41-1.77c.27-.51.66-.9,1.16-1.18s1.11-.42,1.82-.42c.64,0,1.2.12,1.67.35.47.23.83.56,1.09.98.26.42.39.92.39,1.48h-2.18c-.03-.34-.13-.61-.3-.79-.17-.18-.38-.27-.64-.27-.21,0-.38.06-.54.18-.15.12-.27.3-.36.53-.08.24-.13.53-.13.89s.04.66.13.89c.09.24.21.41.36.53.15.12.33.18.54.18.17,0,.33-.04.46-.12s.24-.2.33-.36.13-.35.15-.58h2.18c0,.58-.14,1.08-.4,1.51-.26.43-.62.76-1.08.99-.47.23-1.02.35-1.67.35Z" fill="#fff" stroke-width="0"/><path d="M182.94,31.8c-.7,0-1.3-.13-1.8-.4-.5-.27-.89-.65-1.16-1.16s-.41-1.11-.41-1.81.14-1.27.41-1.77.66-.9,1.16-1.18,1.08-.42,1.76-.42c.49,0,.94.08,1.34.23.4.15.74.38,1.03.67.28.29.5.64.66,1.06.15.42.23.88.23,1.4v.55h-5.85v-1.3h3.68c0-.19-.05-.35-.14-.5-.09-.14-.22-.26-.37-.34-.15-.08-.33-.12-.53-.12s-.37.04-.52.12c-.16.08-.29.19-.38.33-.09.14-.15.31-.15.5v1.4c0,.21.04.4.13.56.09.17.21.29.38.39.16.09.36.14.6.14.16,0,.31-.02.45-.07.13-.05.25-.11.35-.2.1-.09.17-.19.21-.31h2.15c-.07.45-.25.85-.52,1.18-.28.33-.64.59-1.09.78-.45.18-.98.27-1.59.27Z" fill="#fff" stroke-width="0"/><path d="M189.46,28v3.68h-2.35v-6.55h2.23v1.24h.07c.14-.41.39-.74.75-.98s.78-.35,1.26-.35.87.11,1.21.32c.34.21.61.5.8.87.19.37.28.79.28,1.27v4.18h-2.35v-3.68c0-.32-.08-.58-.25-.76-.17-.18-.4-.28-.69-.28-.19,0-.36.04-.5.13-.14.08-.25.2-.33.36-.08.15-.12.34-.12.56Z" fill="#fff" stroke-width="0"/><path d="M198.76,25.14v1.7h-4.31v-1.7h4.31ZM195.28,23.57h2.35v6.01c0,.09.02.17.05.23s.08.11.14.14.15.04.25.04c.07,0,.15,0,.25-.03.09-.02.17-.03.21-.04l.34,1.65c-.11.03-.25.07-.45.12-.2.05-.43.08-.69.09-.54.03-.99-.03-1.36-.17-.37-.14-.64-.36-.83-.67-.18-.3-.27-.68-.27-1.14v-6.23Z" fill="#fff" stroke-width="0"/><path d="M199.72,31.68v-6.55h2.28v1.24h.07c.12-.46.31-.8.57-1.01.26-.21.57-.32.91-.32.1,0,.2,0,.3.02.1.02.2.04.29.07v2.01c-.12-.04-.26-.07-.43-.09-.17-.02-.32-.03-.44-.03-.23,0-.44.05-.62.16-.18.1-.33.25-.43.44-.1.19-.16.4-.16.65v3.41h-2.35Z" fill="#fff" stroke-width="0"/><path d="M206.43,31.79c-.42,0-.79-.07-1.11-.21s-.57-.35-.75-.63-.27-.64-.27-1.07c0-.36.06-.66.18-.92s.29-.46.51-.62c.22-.16.47-.29.76-.37.29-.08.61-.14.94-.17.37-.03.66-.06.88-.1s.38-.1.48-.17.15-.18.15-.3v-.02c0-.17-.07-.3-.2-.39s-.3-.14-.5-.14c-.22,0-.41.05-.55.15s-.23.25-.25.45h-2.17c.03-.4.16-.77.38-1.1.23-.34.56-.61.99-.81s.98-.3,1.63-.3c.47,0,.89.05,1.26.16s.69.26.95.46c.26.19.46.42.6.68.14.26.21.54.21.85v4.48h-2.2v-.92h-.05c-.13.24-.29.44-.48.59-.19.15-.4.26-.63.33s-.5.1-.78.1ZM207.2,30.3c.18,0,.35-.04.5-.11.16-.07.29-.18.39-.32s.15-.31.15-.51v-.55c-.06.03-.13.05-.2.07-.07.02-.14.04-.22.06-.08.02-.16.04-.25.06-.09.02-.18.03-.27.05-.18.03-.33.07-.45.14-.11.06-.2.14-.25.23-.06.09-.08.2-.08.31,0,.18.06.32.19.42s.29.14.49.14Z" fill="#fff" stroke-width="0"/><path d="M214.05,22.96v8.73h-2.35v-8.73h2.35Z" fill="#fff" stroke-width="0"/><path d="M219.98,22.96v8.73h-2.35v-8.73h2.35Z" fill="#fff" stroke-width="0"/><path d="M224.33,31.8c-.71,0-1.32-.14-1.82-.42s-.89-.68-1.16-1.18c-.27-.51-.41-1.1-.41-1.77s.13-1.26.41-1.77c.27-.51.66-.9,1.16-1.18s1.11-.42,1.82-.42,1.32.14,1.82.42c.51.28.89.68,1.16,1.18.27.51.4,1.1.4,1.77s-.13,1.26-.4,1.77c-.27.51-.66.9-1.16,1.18-.5.28-1.11.42-1.82.42ZM224.35,30.07c.2,0,.37-.07.52-.2.15-.13.26-.32.34-.57.08-.25.12-.54.12-.88s-.04-.64-.12-.88c-.08-.25-.19-.44-.34-.57-.14-.13-.32-.2-.52-.2-.21,0-.39.07-.54.2-.15.13-.27.32-.34.57-.08.25-.12.54-.12.88s.04.64.12.88c.08.25.19.44.34.57.15.13.33.2.54.2Z" fill="#fff" stroke-width="0"/><path d="M231.83,31.8c-.71,0-1.32-.14-1.82-.42s-.89-.68-1.16-1.18c-.27-.51-.41-1.1-.41-1.77s.13-1.26.41-1.77c.27-.51.66-.9,1.16-1.18s1.11-.42,1.82-.42c.64,0,1.2.12,1.67.35.47.23.83.56,1.09.98.26.42.39.92.39,1.48h-2.18c-.03-.34-.13-.61-.3-.79-.17-.18-.38-.27-.64-.27-.21,0-.38.06-.54.18-.15.12-.27.3-.36.53-.08.24-.13.53-.13.89s.04.66.13.89c.09.24.21.41.36.53.15.12.33.18.54.18.17,0,.33-.04.46-.12s.24-.2.33-.36.13-.35.15-.58h2.18c0,.58-.14,1.08-.4,1.51-.26.43-.62.76-1.08.99-.47.23-1.02.35-1.67.35Z" fill="#fff" stroke-width="0"/><path d="M237.78,31.79c-.42,0-.79-.07-1.11-.21s-.57-.35-.75-.63-.27-.64-.27-1.07c0-.36.06-.66.18-.92s.29-.46.51-.62c.22-.16.47-.29.76-.37.29-.08.61-.14.94-.17.37-.03.66-.06.88-.1s.38-.1.48-.17.15-.18.15-.3v-.02c0-.17-.07-.3-.2-.39s-.3-.14-.5-.14c-.22,0-.41.05-.55.15s-.23.25-.25.45h-2.17c.03-.4.16-.77.38-1.1.23-.34.56-.61.99-.81s.98-.3,1.63-.3c.47,0,.89.05,1.26.16s.69.26.95.46c.26.19.46.42.6.68.14.26.21.54.21.85v4.48h-2.2v-.92h-.05c-.13.24-.29.44-.48.59-.19.15-.4.26-.63.33s-.5.1-.78.1ZM238.54,30.3c.18,0,.35-.04.5-.11.16-.07.29-.18.39-.32s.15-.31.15-.51v-.55c-.06.03-.13.05-.2.07-.07.02-.14.04-.22.06-.08.02-.16.04-.25.06-.09.02-.18.03-.27.05-.18.03-.33.07-.45.14-.11.06-.2.14-.25.23-.06.09-.08.2-.08.31,0,.18.06.32.19.42s.29.14.49.14Z" fill="#fff" stroke-width="0"/><path d="M246.95,25.14v1.7h-4.31v-1.7h4.31ZM243.47,23.57h2.35v6.01c0,.09.02.17.05.23s.08.11.14.14c.06.03.15.04.25.04.07,0,.15,0,.25-.03.1-.02.17-.03.21-.04l.34,1.65c-.11.03-.26.07-.45.12-.2.05-.43.08-.69.09-.54.03-.99-.03-1.36-.17-.37-.14-.64-.36-.83-.67-.18-.3-.27-.68-.27-1.14v-6.23Z" fill="#fff" stroke-width="0"/><path d="M247.9,31.68v-6.55h2.35v6.55h-2.35ZM249.08,24.46c-.32,0-.6-.11-.82-.32-.23-.21-.34-.46-.34-.76s.11-.55.34-.76c.23-.21.5-.32.82-.32s.59.1.82.32c.23.21.34.46.34.76s-.11.55-.34.76c-.23.21-.5.32-.82.32Z" fill="#fff" stroke-width="0"/><path d="M254.6,31.8c-.71,0-1.32-.14-1.82-.42-.5-.28-.89-.68-1.16-1.18-.27-.51-.4-1.1-.4-1.77s.13-1.26.4-1.77c.27-.51.66-.9,1.16-1.18.51-.28,1.11-.42,1.82-.42s1.32.14,1.82.42c.5.28.89.68,1.16,1.18.27.51.4,1.1.4,1.77s-.13,1.26-.4,1.77c-.27.51-.66.9-1.16,1.18-.51.28-1.11.42-1.82.42ZM254.62,30.07c.2,0,.37-.07.52-.2.15-.13.26-.32.34-.57.08-.25.12-.54.12-.88s-.04-.64-.12-.88c-.08-.25-.19-.44-.34-.57-.14-.13-.32-.2-.52-.2-.21,0-.39.07-.54.2-.15.13-.27.32-.34.57-.08.25-.12.54-.12.88s.04.64.12.88c.08.25.19.44.34.57.15.13.33.2.54.2Z" fill="#fff" stroke-width="0"/><path d="M261.3,28v3.68h-2.35v-6.55h2.23v1.24h.07c.14-.41.39-.74.75-.98s.78-.35,1.26-.35.87.11,1.21.32c.34.21.61.5.8.87.19.37.28.79.28,1.27v4.18h-2.35v-3.68c0-.32-.08-.58-.25-.76-.17-.18-.4-.28-.69-.28-.19,0-.36.04-.5.13-.14.08-.25.2-.33.36-.08.15-.12.34-.12.56Z" fill="#fff" stroke-width="0"/><path d="M307.78,13.23h-2.4c-.02-.2-.06-.38-.13-.54-.07-.16-.17-.3-.3-.42-.13-.12-.28-.21-.46-.27-.18-.06-.38-.1-.61-.1-.4,0-.73.1-1.01.29-.27.19-.48.47-.62.83-.14.36-.21.79-.21,1.3,0,.53.07.98.21,1.34s.35.63.62.81c.27.18.6.27.98.27.22,0,.42-.03.59-.08.17-.06.32-.14.45-.24s.23-.23.31-.38.14-.32.16-.5l2.4.02c-.03.37-.13.75-.31,1.13-.18.38-.43.73-.76,1.06-.33.32-.73.58-1.22.78-.48.2-1.04.29-1.68.29-.8,0-1.52-.17-2.15-.52s-1.14-.85-1.5-1.52c-.37-.67-.55-1.48-.55-2.45s.19-1.79.56-2.46.88-1.17,1.52-1.51c.64-.34,1.35-.51,2.13-.51.55,0,1.06.08,1.52.23.46.15.87.37,1.22.66.35.29.63.64.84,1.06s.34.9.39,1.44Z" fill="#fff" stroke-width="0"/><path d="M311.24,9.96v8.73h-2.35v-8.73h2.35Z" fill="#fff" stroke-width="0"/><path d="M315.57,18.8c-.7,0-1.3-.13-1.8-.4-.5-.27-.89-.65-1.16-1.16-.27-.5-.41-1.11-.41-1.81s.14-1.27.41-1.77c.27-.51.66-.9,1.15-1.18s1.08-.42,1.76-.42c.5,0,.94.08,1.34.23.4.15.74.38,1.03.67.28.29.5.64.66,1.06.15.42.23.88.23,1.4v.55h-5.85v-1.3h3.68c0-.19-.05-.35-.14-.5-.09-.14-.22-.26-.37-.34-.16-.08-.33-.12-.53-.12s-.37.04-.52.12-.29.19-.38.33c-.1.14-.15.31-.15.5v1.4c0,.21.04.4.13.56.09.17.21.29.38.39s.36.14.6.14c.16,0,.31-.02.45-.07s.25-.11.35-.2c.1-.09.17-.19.21-.31h2.15c-.07.45-.25.85-.52,1.18-.28.33-.64.59-1.09.78-.45.18-.98.27-1.59.27Z" fill="#fff" stroke-width="0"/><path d="M321.55,18.79c-.42,0-.79-.07-1.11-.21-.32-.14-.57-.35-.75-.63s-.27-.64-.27-1.07c0-.36.06-.66.18-.92.12-.25.29-.46.51-.62.22-.16.47-.29.77-.37.29-.08.61-.14.94-.17.37-.03.66-.06.88-.1.22-.04.38-.1.48-.17s.15-.18.15-.3v-.02c0-.17-.07-.3-.2-.39s-.3-.14-.5-.14c-.22,0-.41.05-.55.15s-.22.25-.25.45h-2.17c.03-.4.16-.77.38-1.1.23-.34.56-.61.99-.81s.98-.3,1.63-.3c.47,0,.89.05,1.26.16s.69.26.95.46c.26.19.46.42.6.68.14.26.21.54.21.85v4.48h-2.2v-.92h-.05c-.13.24-.29.44-.47.59-.19.15-.4.26-.63.33-.24.07-.5.1-.78.1ZM322.32,17.3c.18,0,.35-.04.5-.11.16-.07.29-.18.39-.32s.15-.31.15-.51v-.55c-.06.03-.13.05-.2.07-.07.02-.14.04-.22.06-.08.02-.16.04-.25.06s-.18.03-.27.05c-.18.03-.33.07-.45.14s-.2.14-.26.23-.08.2-.08.31c0,.18.06.32.19.42.13.1.29.14.49.14Z" fill="#fff" stroke-width="0"/><path d="M329.17,15v3.68h-2.35v-6.55h2.23v1.24h.07c.14-.41.39-.74.75-.98s.78-.35,1.26-.35.87.11,1.21.32c.34.21.61.5.8.87.19.37.28.79.28,1.27v4.18h-2.35v-3.68c0-.32-.08-.58-.25-.76-.17-.18-.4-.28-.69-.28-.19,0-.36.04-.5.13-.14.08-.25.2-.33.36-.08.15-.12.34-.12.56Z" fill="#fff" stroke-width="0"/><path d="M339.77,18.82c-.62,0-1.16-.11-1.62-.33-.45-.22-.8-.52-1.04-.89-.24-.37-.36-.78-.36-1.23,0-.33.06-.62.19-.87s.3-.48.52-.69c.22-.21.49-.42.79-.62l1.98-1.23c.2-.12.33-.26.4-.39.07-.13.11-.25.11-.36,0-.14-.05-.26-.15-.37-.1-.11-.26-.16-.48-.16-.13,0-.25.02-.35.07s-.17.12-.22.21c-.05.09-.08.19-.08.32,0,.17.05.34.15.51s.23.36.4.56c.17.2.36.43.57.68l4.23,4.65h-2.35l-3.55-3.75c-.17-.18-.36-.41-.58-.68-.21-.27-.39-.57-.54-.91-.15-.34-.23-.71-.23-1.1,0-.44.11-.85.32-1.21.21-.37.51-.66.89-.88s.83-.33,1.34-.33.91.1,1.26.3c.35.2.63.47.82.81.19.34.29.7.29,1.11s-.1.79-.3,1.14c-.2.35-.49.66-.86.92l-1.81,1.28c-.14.1-.26.21-.36.33s-.15.29-.15.49c0,.17.04.31.12.42.08.12.19.21.33.27s.31.09.5.09c.29,0,.58-.07.87-.21.29-.14.56-.34.8-.59.24-.25.44-.56.58-.9.15-.35.22-.73.22-1.14h1.86c0,.51-.05.99-.16,1.46-.1.47-.27.9-.51,1.29-.23.39-.54.72-.92.98-.12.06-.24.12-.35.17-.11.05-.23.11-.35.17-.35.22-.71.38-1.1.48s-.75.14-1.12.14Z" fill="#fff" stroke-width="0"/><path d="M347.71,18.68v-6.55h2.23v1.24h.07c.14-.41.37-.73.7-.97.33-.24.72-.36,1.18-.36s.86.12,1.19.36c.33.24.53.56.6.96h.07c.11-.4.35-.72.71-.96.36-.24.78-.36,1.27-.36.63,0,1.14.2,1.53.61s.59.94.59,1.61v4.41h-2.35v-3.82c0-.29-.07-.51-.22-.68-.14-.16-.34-.25-.58-.25s-.43.08-.57.25c-.14.16-.21.39-.21.68v3.82h-2.25v-3.82c0-.29-.07-.51-.22-.68-.15-.16-.34-.25-.58-.25-.16,0-.3.04-.42.11-.12.07-.21.18-.27.32-.06.14-.1.3-.1.49v3.82h-2.35Z" fill="#fff" stroke-width="0"/><path d="M360.82,18.79c-.42,0-.79-.07-1.11-.21-.32-.14-.57-.35-.75-.63s-.27-.64-.27-1.07c0-.36.06-.66.18-.92.12-.25.29-.46.51-.62.22-.16.47-.29.77-.37.29-.08.61-.14.94-.17.37-.03.66-.06.88-.1.22-.04.38-.1.48-.17s.15-.18.15-.3v-.02c0-.17-.07-.3-.2-.39s-.3-.14-.5-.14c-.22,0-.41.05-.55.15s-.22.25-.25.45h-2.17c.03-.4.16-.77.38-1.1.23-.34.56-.61.99-.81s.98-.3,1.63-.3c.47,0,.89.05,1.26.16s.69.26.95.46c.26.19.46.42.6.68.14.26.21.54.21.85v4.48h-2.2v-.92h-.05c-.13.24-.29.44-.47.59-.19.15-.4.26-.63.33-.24.07-.5.1-.78.1ZM361.59,17.3c.18,0,.35-.04.5-.11.16-.07.29-.18.39-.32s.15-.31.15-.51v-.55c-.06.03-.13.05-.2.07-.07.02-.14.04-.22.06-.08.02-.16.04-.25.06s-.18.03-.27.05c-.18.03-.33.07-.45.14s-.2.14-.26.23-.08.2-.08.31c0,.18.06.32.19.42.13.1.29.14.49.14Z" fill="#fff" stroke-width="0"/><path d="M366.09,18.68v-8.73h2.35v8.73h-2.35ZM368.2,17.13l.02-2.8h.31l1.58-2.2h2.64l-2.66,3.43h-.66l-1.23,1.57ZM370.13,18.68l-1.5-2.59,1.53-1.67,2.66,4.26h-2.69Z" fill="#fff" stroke-width="0"/><path d="M376.23,18.8c-.7,0-1.3-.13-1.8-.4-.5-.27-.89-.65-1.16-1.16s-.41-1.11-.41-1.81.14-1.27.41-1.77c.27-.51.66-.9,1.16-1.18s1.08-.42,1.76-.42c.49,0,.94.08,1.34.23.4.15.74.38,1.03.67.28.29.5.64.66,1.06.15.42.23.88.23,1.4v.55h-5.85v-1.3h3.68c0-.19-.05-.35-.14-.5-.09-.14-.22-.26-.37-.34-.15-.08-.33-.12-.53-.12s-.37.04-.52.12-.29.19-.38.33c-.09.14-.15.31-.15.5v1.4c0,.21.04.4.13.56.09.17.21.29.38.39s.36.14.6.14c.16,0,.31-.02.45-.07s.25-.11.35-.2c.1-.09.17-.19.21-.31h2.15c-.07.45-.25.85-.52,1.18-.28.33-.64.59-1.09.78-.45.18-.98.27-1.59.27Z" fill="#fff" stroke-width="0"/><path d="M382.78,18.68v-6.55h2.35v6.55h-2.35ZM383.96,11.46c-.32,0-.6-.11-.82-.32-.23-.21-.34-.46-.34-.76s.11-.55.34-.76c.23-.21.5-.32.82-.32s.59.1.82.32c.23.21.34.46.34.76s-.11.55-.34.76c-.23.21-.5.32-.82.32Z" fill="#fff" stroke-width="0"/><path d="M390.22,12.14v1.7h-4.31v-1.7h4.31ZM386.75,10.57h2.35v6.01c0,.09.02.17.05.23s.08.11.14.14.15.04.25.04c.07,0,.15,0,.25-.03.1-.02.17-.03.21-.04l.34,1.65c-.1.03-.25.07-.45.12s-.43.08-.69.09c-.54.03-.99-.03-1.36-.17-.37-.14-.64-.36-.83-.67-.18-.3-.27-.68-.27-1.14v-6.23Z" fill="#fff" stroke-width="0"/><path d="M296.88,31.8c-.7,0-1.3-.13-1.8-.4-.5-.27-.89-.65-1.16-1.16s-.41-1.11-.41-1.81.14-1.27.41-1.77.66-.9,1.16-1.18,1.08-.42,1.76-.42c.49,0,.94.08,1.34.23.4.15.74.38,1.03.67.28.29.5.64.66,1.06.15.42.23.88.23,1.4v.55h-5.85v-1.3h3.68c0-.19-.05-.35-.14-.5-.09-.14-.22-.26-.37-.34-.15-.08-.33-.12-.53-.12s-.37.04-.52.12c-.16.08-.29.19-.38.33-.09.14-.15.31-.15.5v1.4c0,.21.04.4.13.56.09.17.21.29.38.39.16.09.36.14.6.14.16,0,.31-.02.45-.07.13-.05.25-.11.35-.2.1-.09.17-.19.21-.31h2.15c-.07.45-.25.85-.52,1.18-.28.33-.64.59-1.09.78-.45.18-.98.27-1.59.27Z" fill="#fff" stroke-width="0"/><path d="M302.86,31.79c-.42,0-.79-.07-1.11-.21-.32-.14-.57-.35-.75-.63s-.27-.64-.27-1.07c0-.36.06-.66.18-.92.12-.25.29-.46.51-.62.22-.16.47-.29.77-.37.29-.08.61-.14.94-.17.37-.03.66-.06.88-.1.22-.04.38-.1.48-.17s.15-.18.15-.3v-.02c0-.17-.07-.3-.2-.39s-.3-.14-.5-.14c-.22,0-.41.05-.55.15s-.22.25-.25.45h-2.17c.03-.4.16-.77.38-1.1.23-.34.56-.61.99-.81s.98-.3,1.63-.3c.47,0,.89.05,1.26.16s.69.26.95.46c.26.19.46.42.6.68.14.26.21.54.21.85v4.48h-2.2v-.92h-.05c-.13.24-.29.44-.47.59-.19.15-.4.26-.63.33-.24.07-.5.1-.78.1ZM303.63,30.3c.18,0,.35-.04.5-.11.16-.07.29-.18.39-.32s.15-.31.15-.51v-.55c-.06.03-.13.05-.2.07-.07.02-.14.04-.22.06-.08.02-.16.04-.25.06s-.18.03-.27.05c-.18.03-.33.07-.45.14s-.2.14-.26.23-.08.2-.08.31c0,.18.06.32.19.42.13.1.29.14.49.14Z" fill="#fff" stroke-width="0"/><path d="M314.11,27.27h-2.17c-.01-.13-.06-.25-.14-.35s-.19-.17-.32-.22c-.13-.05-.27-.08-.43-.08-.2,0-.38.04-.52.11s-.22.18-.21.32c0,.1.04.19.13.27.09.08.25.15.5.19l1.33.24c.67.12,1.17.33,1.5.62.33.29.49.67.5,1.16,0,.47-.14.87-.42,1.21-.27.34-.65.61-1.12.79-.47.19-1.01.28-1.62.28-1,0-1.78-.2-2.35-.61-.56-.41-.88-.95-.94-1.62h2.34c.03.21.13.37.31.48s.4.17.66.17c.22,0,.39-.04.53-.11s.21-.18.22-.32c0-.12-.07-.22-.19-.3-.12-.07-.31-.13-.56-.18l-1.16-.2c-.67-.12-1.17-.34-1.5-.67-.33-.33-.5-.75-.49-1.26,0-.45.12-.84.36-1.16.24-.32.59-.56,1.04-.72s.99-.25,1.61-.25c.95,0,1.69.2,2.24.59s.83.93.86,1.63Z" fill="#fff" stroke-width="0"/><path d="M315.18,31.68v-6.55h2.35v6.55h-2.35ZM316.36,24.46c-.32,0-.6-.11-.82-.32-.23-.21-.34-.46-.34-.76s.11-.55.34-.76c.23-.21.5-.32.82-.32s.59.1.82.32c.23.21.34.46.34.76s-.11.55-.34.76c-.23.21-.5.32-.82.32Z" fill="#fff" stroke-width="0"/><path d="M321.08,22.96v8.73h-2.35v-8.73h2.35Z" fill="#fff" stroke-width="0"/><path d="M323.71,34.13c-.27,0-.53-.02-.77-.06-.24-.04-.46-.1-.64-.17l.51-1.67c.29.1.54.15.74.13s.36-.1.45-.27l.05-.12-2.3-6.83h2.45l1.06,4.53h.07l1.07-4.53h2.47l-2.39,7.09c-.12.36-.29.68-.52.97-.23.29-.52.51-.89.68-.37.17-.82.25-1.37.25Z" fill="#fff" stroke-width="0"/><path d="M333.75,31.79c-.42,0-.79-.07-1.11-.21s-.57-.35-.75-.63-.27-.64-.27-1.07c0-.36.06-.66.18-.92s.29-.46.51-.62c.22-.16.47-.29.76-.37.29-.08.61-.14.94-.17.37-.03.66-.06.88-.1s.38-.1.48-.17.15-.18.15-.3v-.02c0-.17-.07-.3-.2-.39s-.3-.14-.5-.14c-.22,0-.41.05-.55.15s-.23.25-.25.45h-2.17c.03-.4.16-.77.38-1.1.23-.34.56-.61.99-.81s.98-.3,1.63-.3c.47,0,.89.05,1.26.16s.69.26.95.46c.26.19.46.42.6.68.14.26.21.54.21.85v4.48h-2.2v-.92h-.05c-.13.24-.29.44-.48.59-.19.15-.4.26-.63.33s-.5.1-.78.1ZM334.51,30.3c.18,0,.35-.04.5-.11.16-.07.29-.18.39-.32s.15-.31.15-.51v-.55c-.06.03-.13.05-.2.07-.07.02-.14.04-.22.06-.08.02-.16.04-.25.06-.09.02-.18.03-.27.05-.18.03-.33.07-.45.14-.11.06-.2.14-.25.23-.06.09-.08.2-.08.31,0,.18.06.32.19.42s.29.14.49.14Z" fill="#fff" stroke-width="0"/><path d="M342.17,31.8c-.71,0-1.32-.14-1.82-.42s-.89-.68-1.16-1.18c-.27-.51-.41-1.1-.41-1.77s.13-1.26.41-1.77c.27-.51.66-.9,1.16-1.18s1.11-.42,1.82-.42c.64,0,1.2.12,1.67.35.47.23.83.56,1.09.98.26.42.39.92.39,1.48h-2.18c-.03-.34-.13-.61-.3-.79-.17-.18-.38-.27-.64-.27-.21,0-.38.06-.54.18-.15.12-.27.3-.36.53-.08.24-.13.53-.13.89s.04.66.13.89c.09.24.21.41.36.53.15.12.33.18.54.18.17,0,.33-.04.46-.12s.24-.2.33-.36.13-.35.15-.58h2.18c0,.58-.14,1.08-.4,1.51-.26.43-.62.76-1.08.99-.47.23-1.02.35-1.67.35Z" fill="#fff" stroke-width="0"/><path d="M349.44,31.8c-.71,0-1.32-.14-1.82-.42s-.89-.68-1.16-1.18c-.27-.51-.41-1.1-.41-1.77s.13-1.26.41-1.77c.27-.51.66-.9,1.16-1.18s1.11-.42,1.82-.42c.64,0,1.2.12,1.67.35.47.23.83.56,1.09.98.26.42.39.92.39,1.48h-2.18c-.03-.34-.13-.61-.3-.79-.17-.18-.38-.27-.64-.27-.21,0-.38.06-.54.18-.15.12-.27.3-.36.53-.08.24-.13.53-.13.89s.04.66.13.89c.09.24.21.41.36.53.15.12.33.18.54.18.17,0,.33-.04.46-.12s.24-.2.33-.36.13-.35.15-.58h2.18c0,.58-.14,1.08-.4,1.51-.26.43-.62.76-1.08.99-.47.23-1.02.35-1.67.35Z" fill="#fff" stroke-width="0"/><path d="M356.71,31.8c-.7,0-1.3-.13-1.8-.4-.5-.27-.89-.65-1.16-1.16s-.41-1.11-.41-1.81.14-1.27.41-1.77.66-.9,1.16-1.18,1.08-.42,1.76-.42c.49,0,.94.08,1.34.23.4.15.74.38,1.03.67.28.29.5.64.66,1.06.15.42.23.88.23,1.4v.55h-5.85v-1.3h3.68c0-.19-.05-.35-.14-.5-.09-.14-.22-.26-.37-.34-.15-.08-.33-.12-.53-.12s-.37.04-.52.12c-.16.08-.29.19-.38.33-.09.14-.15.31-.15.5v1.4c0,.21.04.4.13.56.09.17.21.29.38.39.16.09.36.14.6.14.16,0,.31-.02.45-.07.13-.05.25-.11.35-.2.1-.09.17-.19.21-.31h2.15c-.07.45-.25.85-.52,1.18-.28.33-.64.59-1.09.78-.45.18-.98.27-1.59.27Z" fill="#fff" stroke-width="0"/><path d="M366.85,27.27h-2.17c-.01-.13-.06-.25-.14-.35s-.19-.17-.32-.22c-.13-.05-.27-.08-.43-.08-.2,0-.38.04-.52.11s-.22.18-.21.32c0,.1.04.19.13.27.09.08.25.15.5.19l1.33.24c.67.12,1.17.33,1.5.62.33.29.49.67.5,1.16,0,.47-.14.87-.42,1.21-.27.34-.65.61-1.12.79-.47.19-1.01.28-1.62.28-1,0-1.78-.2-2.35-.61-.56-.41-.88-.95-.94-1.62h2.34c.03.21.13.37.31.48s.4.17.66.17c.22,0,.39-.04.53-.11s.21-.18.22-.32c0-.12-.07-.22-.19-.3-.12-.07-.31-.13-.56-.18l-1.16-.2c-.67-.12-1.17-.34-1.5-.67-.33-.33-.5-.75-.49-1.26,0-.45.12-.84.36-1.16.24-.32.59-.56,1.04-.72s.99-.25,1.61-.25c.95,0,1.69.2,2.24.59s.83.93.86,1.63Z" fill="#fff" stroke-width="0"/><path d="M373.9,27.27h-2.16c-.01-.13-.06-.25-.14-.35-.08-.1-.19-.17-.32-.22-.13-.05-.27-.08-.43-.08-.2,0-.38.04-.52.11-.15.07-.22.18-.21.32,0,.1.04.19.13.27.09.08.25.15.5.19l1.33.24c.67.12,1.17.33,1.5.62.33.29.49.67.5,1.16,0,.47-.14.87-.42,1.21-.27.34-.65.61-1.12.79s-1.01.28-1.62.28c-1,0-1.78-.2-2.35-.61-.56-.41-.88-.95-.94-1.62h2.34c.03.21.13.37.31.48s.4.17.66.17c.22,0,.39-.04.54-.11s.21-.18.21-.32c0-.12-.06-.22-.18-.3-.12-.07-.31-.13-.57-.18l-1.16-.2c-.67-.12-1.17-.34-1.5-.67-.33-.33-.5-.75-.49-1.26,0-.45.12-.84.36-1.16.24-.32.59-.56,1.04-.72s.99-.25,1.61-.25c.95,0,1.69.2,2.24.59s.83.93.86,1.63Z" fill="#fff" stroke-width="0"/><path d="M374.98,31.68v-6.55h2.35v6.55h-2.35ZM376.16,24.46c-.32,0-.6-.11-.82-.32-.23-.21-.34-.46-.34-.76s.11-.55.34-.76c.23-.21.5-.32.82-.32s.59.1.82.32c.23.21.34.46.34.76s-.11.55-.34.76c-.23.21-.5.32-.82.32Z" fill="#fff" stroke-width="0"/><path d="M378.49,31.68v-8.73h2.35v3.32h.03c.08-.22.21-.43.38-.61.16-.19.37-.33.61-.45s.53-.17.85-.17c.43,0,.84.12,1.23.35.39.23.71.59.95,1.09.25.49.37,1.14.37,1.93s-.12,1.38-.35,1.88-.55.87-.94,1.11-.82.37-1.29.37c-.31,0-.58-.05-.82-.15-.24-.1-.44-.24-.61-.41s-.3-.37-.39-.59h-.05v1.07h-2.33ZM380.79,28.41c0,.32.04.59.13.82s.2.41.36.54c.15.13.34.19.56.19s.4-.06.55-.19c.15-.12.27-.3.35-.53s.12-.51.12-.83-.04-.6-.12-.83c-.08-.23-.2-.41-.35-.53-.15-.12-.34-.19-.55-.19s-.4.06-.56.19c-.16.12-.27.3-.36.53-.08.23-.13.51-.13.83Z" fill="#fff" stroke-width="0"/><path d="M388.61,22.96v8.73h-2.35v-8.73h2.35Z" fill="#fff" stroke-width="0"/><path d="M392.94,31.8c-.7,0-1.3-.13-1.8-.4-.5-.27-.89-.65-1.16-1.16s-.41-1.11-.41-1.81.14-1.27.41-1.77c.27-.51.66-.9,1.16-1.18s1.08-.42,1.76-.42c.49,0,.94.08,1.34.23.4.15.74.38,1.03.67.28.29.5.64.66,1.06.15.42.23.88.23,1.4v.55h-5.85v-1.3h3.68c0-.19-.05-.35-.14-.5-.09-.14-.22-.26-.37-.34-.15-.08-.33-.12-.53-.12s-.37.04-.52.12-.29.19-.38.33c-.09.14-.15.31-.15.5v1.4c0,.21.04.4.13.56.09.17.21.29.38.39s.36.14.6.14c.16,0,.31-.02.45-.07s.25-.11.35-.2c.1-.09.17-.19.21-.31h2.15c-.07.45-.25.85-.52,1.18-.28.33-.64.59-1.09.78-.45.18-.98.27-1.59.27Z" fill="#fff" stroke-width="0"/><path d="M481.85,16.46h2.37v5.59c0,.66-.16,1.24-.48,1.72s-.76.86-1.32,1.12-1.22.39-1.97.39-1.41-.13-1.98-.39c-.56-.26-1-.64-1.32-1.12-.31-.48-.47-1.06-.47-1.72v-5.59h2.37v5.39c0,.27.06.51.18.72.12.21.29.38.5.5.21.12.45.18.72.18s.51-.06.72-.18c.21-.12.38-.28.49-.5.12-.21.18-.45.18-.72v-5.39Z" fill="#fff" stroke-width="0"/><path d="M491.36,20.77h-2.17c-.01-.13-.06-.25-.14-.35-.08-.1-.19-.17-.32-.22-.13-.05-.27-.08-.43-.08-.2,0-.38.04-.52.11-.14.07-.22.18-.21.32,0,.1.04.19.13.27.09.08.25.15.5.19l1.33.24c.67.12,1.17.33,1.5.62.33.29.49.67.5,1.16,0,.47-.14.87-.42,1.21-.27.34-.65.61-1.12.79-.47.19-1.01.28-1.62.28-1,0-1.78-.2-2.35-.61-.56-.41-.88-.95-.94-1.62h2.33c.03.21.13.37.31.48.17.11.4.17.66.17.22,0,.39-.04.54-.11s.21-.18.21-.32c0-.12-.06-.22-.19-.3-.12-.07-.31-.13-.56-.18l-1.16-.2c-.67-.12-1.17-.34-1.5-.67-.33-.33-.5-.75-.49-1.26,0-.45.12-.84.36-1.16.24-.32.59-.56,1.04-.72s.99-.25,1.61-.25c.95,0,1.69.2,2.24.59s.83.93.86,1.63Z" fill="#fff" stroke-width="0"/><path d="M495.57,25.3c-.7,0-1.3-.13-1.8-.4-.5-.27-.89-.65-1.16-1.16s-.41-1.11-.41-1.81.14-1.27.41-1.77.66-.9,1.16-1.18,1.08-.42,1.76-.42c.49,0,.94.08,1.34.23.4.15.74.38,1.03.67.28.29.5.64.66,1.06.15.42.23.88.23,1.4v.55h-5.85v-1.3h3.68c0-.19-.05-.35-.14-.5-.09-.14-.22-.26-.37-.34-.15-.08-.33-.12-.53-.12s-.37.04-.52.12c-.16.08-.29.19-.38.33-.09.14-.15.31-.15.5v1.4c0,.21.04.4.13.56.09.17.21.29.38.39.16.09.36.14.6.14.16,0,.31-.02.45-.07.13-.05.25-.11.35-.2.1-.09.17-.19.21-.31h2.15c-.07.45-.25.85-.52,1.18-.28.33-.64.59-1.09.78-.45.18-.98.27-1.59.27Z" fill="#fff" stroke-width="0"/><path d="M502.11,25.18v-6.55h2.35v6.55h-2.35ZM503.29,17.96c-.32,0-.59-.11-.82-.32-.23-.21-.34-.46-.34-.76s.11-.55.34-.76c.23-.21.5-.32.82-.32s.59.1.82.32c.23.21.34.46.34.76s-.11.55-.34.76c-.23.21-.5.32-.82.32Z" fill="#fff" stroke-width="0"/><path d="M509.56,18.64v1.7h-4.31v-1.7h4.31ZM506.08,17.07h2.35v6.01c0,.09.02.17.05.23s.08.11.14.14.15.04.25.04c.07,0,.15,0,.25-.03.09-.02.17-.03.21-.04l.34,1.65c-.11.03-.25.07-.45.12-.2.05-.43.08-.69.09-.54.03-.99-.03-1.36-.17-.37-.14-.64-.36-.83-.67-.18-.3-.27-.68-.27-1.14v-6.23Z" fill="#fff" stroke-width="0"/><rect x="182.52" y="52" width="71" height="147" fill="#fff" stroke="#d1d3d4" stroke-width="4.13"/><circle cx="218.54" cy="156.69" r="19.5" fill="#dc1f3e" stroke-width="0"/><path d="M218.13,145.16l-10.18,4.21c-.57.23-.56,1.04,0,1.26l10.22,4.05c.9.36,1.9.36,2.8,0l10.22-4.05c.57-.23.58-1.03,0-1.26l-10.18-4.21c-.93-.38-1.97-.38-2.9,0" fill="#fff" stroke-width="0"/><path d="M220.49,156.9v10.13c0,.48.49.81.93.63l11.39-4.42-.14-11.77-11.76,4.8c-.26.1-.43.35-.43.63" fill="#fff" stroke-width="0"/><path d="M217.82,157.43l-3.38,1.63-.34.17-7.14,3.42c-.45.22-1.03-.11-1.03-.61v-9.51c0-.18.09-.34.22-.46.05-.05.11-.1.17-.13.17-.1.41-.13.62-.05l10.82,4.29c.55.22.59.99.06,1.25" fill="#fff" stroke-width="0"/><path d="M217.82,157.43l-3.38,1.63-8.29-6.99c.05-.05.11-.1.17-.13.17-.1.41-.13.62-.05l10.82,4.29c.55.22.59.99.06,1.25" fill="#e6e7e8" stroke-width="0"/><path d="M197.79,189.81h-1.11l3.21-8.73h1.09l3.2,8.73h-1.11l-2.61-7.35h-.07l-2.61,7.35ZM198.2,186.4h4.47v.94h-4.47v-.94Z" fill="#231f20" stroke-width="0"/><path d="M205.99,182.17c-.2,0-.36-.07-.5-.2-.14-.13-.21-.29-.21-.48s.07-.35.21-.48c.14-.13.31-.2.5-.2s.37.07.51.2c.14.13.21.29.21.48s-.07.35-.21.48c-.14.13-.31.2-.51.2ZM205.48,189.81v-6.54h1.01v6.54h-1.01Z" fill="#231f20" stroke-width="0"/><path d="M208.33,189.81v-6.54h.97v.99h.07c.12-.32.33-.59.65-.79s.67-.3,1.06-.3c.07,0,.17,0,.28,0,.11,0,.19,0,.25.01v1.02s-.11-.02-.23-.04c-.12-.02-.25-.03-.38-.03-.32,0-.6.07-.85.2-.25.13-.44.31-.59.55-.14.23-.21.49-.21.79v4.14h-1.01Z" fill="#231f20" stroke-width="0"/><path d="M216.05,183.26v.85h-3.39v-.85h3.39ZM213.65,181.69h1v6.24c0,.29.04.5.13.64s.19.23.32.28.27.07.42.07c.11,0,.2,0,.27-.02s.13-.02.17-.03l.21.9c-.07.03-.16.05-.29.08-.12.03-.28.04-.46.04-.28,0-.56-.06-.83-.18s-.5-.31-.67-.56-.27-.56-.27-.95v-6.51Z" fill="#231f20" stroke-width="0"/><path d="M219.49,189.96c-.42,0-.79-.08-1.13-.24-.34-.16-.61-.39-.81-.69s-.3-.66-.3-1.09c0-.38.07-.68.22-.91.15-.23.34-.42.59-.55s.52-.23.82-.3c.3-.07.6-.12.91-.16.4-.05.72-.09.97-.12s.43-.07.55-.14c.11-.07.17-.18.17-.34v-.03c0-.42-.11-.75-.34-.98s-.57-.35-1.04-.35-.86.11-1.13.32-.46.43-.58.67l-.95-.34c.17-.4.4-.71.68-.93s.6-.38.94-.47.67-.13,1-.13c.21,0,.45.03.73.08.27.05.54.15.8.3.26.15.47.39.64.69.17.31.26.72.26,1.24v4.31h-1.01v-.89h-.05c-.07.14-.18.29-.34.46s-.37.3-.63.41c-.26.11-.59.17-.97.17ZM219.65,189.06c.4,0,.73-.08,1.01-.23s.48-.36.62-.6.21-.51.21-.78v-.92c-.04.05-.14.1-.28.14-.14.04-.31.08-.5.11-.19.03-.37.06-.54.08-.17.02-.32.04-.42.05-.26.03-.5.09-.73.16-.23.08-.41.19-.55.34-.14.15-.21.35-.21.61,0,.35.13.61.39.79s.59.27.99.27Z" fill="#231f20" stroke-width="0"/><path d="M224.47,189.81v-8.73h1.01v3.22h.08c.07-.11.18-.26.31-.44.13-.18.32-.34.57-.48.25-.14.59-.21,1.01-.21.55,0,1.04.14,1.46.41.42.28.75.67.98,1.17.24.51.35,1.1.35,1.79s-.12,1.29-.35,1.8c-.24.51-.56.9-.98,1.18-.42.28-.9.42-1.44.42-.42,0-.76-.07-1.01-.21s-.45-.3-.58-.48-.24-.33-.32-.45h-.12v1.01h-.97ZM225.46,186.53c0,.5.07.93.22,1.31.14.38.36.67.63.88s.62.32,1.02.32.77-.11,1.05-.33c.28-.22.5-.52.64-.9.14-.38.21-.8.21-1.27s-.07-.88-.21-1.25c-.14-.37-.35-.67-.63-.88-.28-.22-.64-.33-1.06-.33s-.75.1-1.03.31c-.28.21-.49.49-.63.86-.14.37-.21.8-.21,1.28Z" fill="#231f20" stroke-width="0"/><path d="M232.79,181.08v8.73h-1.01v-8.73h1.01Z" fill="#231f20" stroke-width="0"/><path d="M237.37,189.94c-.63,0-1.17-.14-1.63-.42-.46-.28-.81-.67-1.05-1.18s-.37-1.09-.37-1.76.12-1.26.37-1.78c.25-.51.59-.91,1.03-1.2.44-.29.96-.43,1.55-.43.34,0,.68.06,1.01.17.33.11.64.3.91.55s.49.59.65,1.01c.16.42.24.93.24,1.54v.43h-5.04v-.87h4.02c0-.37-.07-.7-.22-.99-.15-.29-.35-.52-.62-.69-.27-.17-.58-.25-.95-.25-.4,0-.75.1-1.04.3-.29.2-.52.45-.67.77-.16.32-.23.65-.23,1.01v.58c0,.5.09.91.26,1.26s.41.6.72.78.66.27,1.07.27c.26,0,.5-.04.72-.11.21-.08.4-.19.56-.34s.28-.34.36-.57l.97.27c-.1.33-.27.62-.52.87-.24.25-.54.44-.9.58-.36.14-.75.21-1.2.21Z" fill="#231f20" stroke-width="0"/><path d="M205.37,107.81c-.09-.29-.22-.54-.37-.77-.15-.23-.33-.42-.54-.59-.21-.16-.45-.29-.71-.37-.26-.09-.55-.13-.87-.13-.52,0-.99.13-1.41.4-.42.27-.76.66-1.01,1.18-.25.52-.38,1.16-.38,1.91s.13,1.39.38,1.91c.25.52.6.91,1.03,1.18s.92.4,1.46.4c.5,0,.94-.11,1.32-.32.38-.21.68-.52.9-.91.21-.39.32-.86.32-1.39l.32.07h-2.62v-.94h3.32v.94c0,.72-.15,1.34-.46,1.88-.3.53-.73.94-1.26,1.23-.54.29-1.15.44-1.84.44-.77,0-1.45-.18-2.03-.55-.58-.36-1.04-.88-1.36-1.55-.33-.67-.49-1.47-.49-2.39,0-.69.09-1.31.28-1.86.19-.55.45-1.02.79-1.41s.74-.69,1.21-.9c.47-.21.98-.31,1.54-.31.46,0,.89.07,1.29.21.4.14.75.33,1.07.58.31.25.58.55.79.9.21.35.36.73.43,1.16h-1.09Z" fill="#231f20" stroke-width="0"/><path d="M210.84,113.94c-.59,0-1.11-.14-1.55-.42s-.79-.67-1.04-1.18c-.25-.51-.37-1.1-.37-1.77s.12-1.28.37-1.79c.25-.51.6-.9,1.04-1.19s.96-.42,1.55-.42,1.11.14,1.55.42.79.68,1.04,1.19c.25.51.37,1.1.37,1.79s-.12,1.27-.37,1.77c-.25.51-.6.9-1.04,1.18s-.96.42-1.55.42ZM210.84,113.04c.45,0,.82-.12,1.11-.35.29-.23.5-.53.64-.91.14-.38.21-.78.21-1.22s-.07-.85-.21-1.22c-.14-.38-.35-.68-.64-.92-.29-.23-.66-.35-1.11-.35s-.82.12-1.11.35-.5.54-.64.92c-.14.38-.21.79-.21,1.22s.07.84.21,1.22c.14.38.35.68.64.91s.66.35,1.11.35Z" fill="#231f20" stroke-width="0"/><path d="M218,113.94c-.59,0-1.11-.14-1.55-.42s-.79-.67-1.04-1.18c-.25-.51-.37-1.1-.37-1.77s.12-1.28.37-1.79c.25-.51.6-.9,1.04-1.19s.96-.42,1.55-.42,1.11.14,1.55.42.79.68,1.04,1.19c.25.51.37,1.1.37,1.79s-.12,1.27-.37,1.77c-.25.51-.6.9-1.04,1.18s-.96.42-1.55.42ZM218,113.04c.45,0,.82-.12,1.11-.35.29-.23.5-.53.64-.91.14-.38.21-.78.21-1.22s-.07-.85-.21-1.22c-.14-.38-.35-.68-.64-.92-.29-.23-.66-.35-1.11-.35s-.82.12-1.11.35-.5.54-.64.92c-.14.38-.21.79-.21,1.22s.07.84.21,1.22c.14.38.35.68.64.91s.66.35,1.11.35Z" fill="#231f20" stroke-width="0"/><path d="M225.14,116.4c-.49,0-.9-.06-1.25-.19-.35-.12-.64-.29-.87-.49-.23-.2-.42-.41-.55-.64l.8-.56c.09.12.21.26.35.41.14.15.33.29.57.4.24.12.56.17.96.17.53,0,.96-.13,1.31-.38.34-.26.52-.66.52-1.2v-1.33h-.08c-.07.12-.18.27-.31.44s-.33.33-.58.46c-.25.13-.59.2-1.02.2-.53,0-1-.12-1.42-.38s-.75-.61-.99-1.09c-.24-.48-.36-1.06-.36-1.74s.12-1.26.35-1.75c.24-.5.56-.88.98-1.16.42-.27.91-.41,1.46-.41.43,0,.76.07,1.02.21.25.14.44.3.58.48s.24.32.31.44h.1v-1.04h.97v6.73c0,.56-.13,1.02-.38,1.37-.25.35-.59.61-1.02.78-.43.17-.9.25-1.43.25ZM225.11,112.8c.4,0,.74-.09,1.02-.28.28-.18.49-.45.63-.8.14-.35.22-.76.22-1.24s-.07-.89-.21-1.25c-.14-.36-.35-.64-.63-.85s-.62-.31-1.03-.31-.78.11-1.06.32c-.28.22-.5.51-.64.87-.14.36-.21.77-.21,1.21s.07.86.22,1.2c.14.35.36.62.64.82.28.2.63.3,1.05.3Z" fill="#231f20" stroke-width="0"/><path d="M230.82,105.08v8.73h-1.01v-8.73h1.01Z" fill="#231f20" stroke-width="0"/><path d="M235.4,113.94c-.63,0-1.17-.14-1.63-.42s-.81-.67-1.05-1.18-.37-1.09-.37-1.76.12-1.26.37-1.77c.25-.51.59-.91,1.03-1.2.44-.29.96-.43,1.55-.43.34,0,.68.06,1.01.17.33.11.64.3.91.55.27.25.49.59.65,1.01.16.42.24.93.24,1.54v.43h-5.04v-.87h4.02c0-.37-.07-.7-.22-.99-.15-.29-.35-.52-.62-.69-.27-.17-.58-.25-.95-.25-.4,0-.75.1-1.04.3-.29.2-.52.45-.67.77-.16.32-.23.65-.23,1.01v.58c0,.49.09.91.26,1.26s.41.6.72.78c.31.18.66.27,1.07.27.26,0,.5-.04.72-.11.21-.08.4-.19.56-.34.16-.15.28-.34.36-.57l.97.27c-.1.33-.27.62-.52.87-.24.25-.54.44-.9.58s-.75.21-1.2.21Z" fill="#231f20" stroke-width="0"/><path d="M204.75,120.26c-.05-.43-.26-.77-.62-1.01-.36-.24-.81-.36-1.34-.36-.39,0-.72.06-1.01.19-.29.12-.51.3-.67.52s-.24.47-.24.75c0,.23.06.43.17.6.11.17.26.3.43.41.18.11.36.2.55.27.19.07.37.13.53.17l.89.24c.23.06.48.14.76.25.28.11.55.25.81.43s.47.41.64.69c.17.28.25.63.25,1.04,0,.47-.12.9-.37,1.28-.25.38-.6.68-1.07.91-.47.22-1.04.34-1.71.34-.62,0-1.17-.1-1.62-.3s-.81-.48-1.07-.84c-.26-.36-.41-.78-.44-1.26h1.09c.03.33.14.6.33.82.19.21.44.37.74.48.3.1.62.16.97.16.4,0,.77-.07,1.09-.2.32-.13.58-.32.76-.55s.28-.52.28-.83c0-.29-.08-.53-.24-.71-.16-.18-.38-.33-.64-.44-.26-.11-.55-.21-.86-.3l-1.07-.31c-.68-.2-1.22-.48-1.62-.84s-.6-.84-.6-1.43c0-.49.13-.92.4-1.28.27-.37.62-.65,1.07-.85s.95-.3,1.51-.3,1.06.1,1.5.3c.44.2.78.47,1.04.82.26.35.39.74.41,1.18h-1.02Z" fill="#231f20" stroke-width="0"/><path d="M208.5,122.87v3.94h-1.01v-8.73h1.01v3.2h.08c.15-.34.38-.61.69-.81.31-.2.72-.3,1.23-.3.45,0,.84.09,1.17.27.33.18.6.45.78.81.19.36.28.83.28,1.39v4.16h-1.01v-4.09c0-.52-.13-.92-.4-1.21-.27-.29-.64-.43-1.11-.43-.33,0-.62.07-.88.21-.26.14-.46.34-.61.61s-.22.59-.22.97Z" fill="#231f20" stroke-width="0"/><path d="M217.33,126.94c-.63,0-1.17-.14-1.63-.42-.46-.28-.81-.67-1.05-1.18-.25-.5-.37-1.09-.37-1.76s.12-1.26.37-1.78c.25-.51.59-.91,1.03-1.2.44-.29.96-.43,1.55-.43.34,0,.68.06,1.01.17.33.11.63.3.91.55.27.25.49.59.65,1.01.16.42.24.93.24,1.54v.43h-5.05v-.87h4.02c0-.37-.07-.7-.22-.99-.15-.29-.35-.52-.62-.69-.27-.17-.58-.25-.95-.25-.4,0-.75.1-1.04.3-.29.2-.51.45-.67.77-.16.32-.23.65-.23,1.01v.58c0,.5.09.91.26,1.26s.41.6.72.78.66.27,1.07.27c.26,0,.5-.04.72-.11.21-.08.4-.19.56-.34s.28-.34.36-.57l.97.27c-.1.33-.27.62-.52.87s-.54.44-.89.58c-.36.14-.75.21-1.2.21Z" fill="#231f20" stroke-width="0"/><path d="M224.32,126.94c-.63,0-1.17-.14-1.63-.42-.46-.28-.81-.67-1.05-1.18-.25-.5-.37-1.09-.37-1.76s.12-1.26.37-1.78c.25-.51.59-.91,1.03-1.2.44-.29.96-.43,1.55-.43.34,0,.68.06,1.01.17.33.11.63.3.91.55.27.25.49.59.65,1.01.16.42.24.93.24,1.54v.43h-5.05v-.87h4.02c0-.37-.07-.7-.22-.99-.15-.29-.35-.52-.62-.69-.27-.17-.58-.25-.95-.25-.4,0-.75.1-1.04.3-.29.2-.51.45-.67.77-.16.32-.23.65-.23,1.01v.58c0,.5.09.91.26,1.26s.41.6.72.78.66.27,1.07.27c.26,0,.5-.04.72-.11.21-.08.4-.19.56-.34s.28-.34.36-.57l.97.27c-.1.33-.27.62-.52.87s-.54.44-.89.58c-.36.14-.75.21-1.2.21Z" fill="#231f20" stroke-width="0"/><path d="M231.41,120.26v.85h-3.39v-.85h3.39ZM229,118.69h1v6.24c0,.29.04.5.13.64s.19.23.32.28.27.07.42.07c.11,0,.2,0,.27-.02s.13-.02.17-.03l.21.9c-.07.03-.16.05-.29.08-.12.03-.28.04-.46.04-.28,0-.56-.06-.83-.18s-.5-.31-.67-.56-.27-.56-.27-.95v-6.51Z" fill="#231f20" stroke-width="0"/><path d="M237.44,121.73l-.9.26c-.06-.15-.14-.3-.25-.44-.11-.14-.26-.26-.45-.36s-.43-.14-.72-.14c-.4,0-.73.09-1,.27-.27.18-.4.42-.4.7,0,.25.09.45.27.59.18.14.47.27.85.36l.97.24c.58.14,1.02.36,1.31.65.29.29.43.67.43,1.12,0,.38-.11.71-.32,1-.21.3-.51.53-.9.7-.38.17-.83.26-1.34.26-.67,0-1.22-.14-1.66-.43s-.71-.71-.83-1.27l.96-.24c.09.35.26.62.52.79.25.18.59.26,1,.26.47,0,.84-.1,1.12-.3.28-.2.42-.44.42-.72,0-.23-.08-.42-.24-.57-.16-.15-.4-.27-.73-.35l-1.09-.25c-.6-.14-1.04-.36-1.32-.66-.28-.3-.42-.68-.42-1.13,0-.37.1-.7.31-.98s.49-.51.86-.67c.36-.16.77-.24,1.23-.24.65,0,1.16.14,1.53.43s.63.66.79,1.12Z" fill="#231f20" stroke-width="0"/><circle cx="218.39" cy="80.69" r="19.5" fill="#1aa665" stroke-width="0"/><rect x="207.14" y="73.19" width="23" height="15" fill="none" stroke="#fff" stroke-miterlimit="10" stroke-width="2"/><line x1="218.64" y1="73.69" x2="218.64" y2="87.69" fill="none" stroke="#fff" stroke-miterlimit="10" stroke-width="2"/><line x1="206.64" y1="80.69" x2="229.64" y2="80.69" fill="none" stroke="#fff" stroke-miterlimit="10" stroke-width="2"/><circle cx="452.36" cy="121.69" r="19.5" fill="#3d7ca4" stroke-width="0"/><path d="M451.48,121.08v-11.19c-5.93.43-10.65,5.23-10.95,11.19h10.95Z" fill="#fff" fill-rule="evenodd" stroke-width="0"/><path d="M453.49,121.08h10.69c-.3-5.88-4.89-10.62-10.69-11.17v11.17Z" fill="#fff" fill-rule="evenodd" stroke-width="0"/><path d="M453.49,122.73v10.75c5.67-.54,10.17-5.07,10.66-10.75h-10.66Z" fill="#fff" fill-rule="evenodd" stroke-width="0"/><path d="M451.48,122.73h-10.92c.5,5.77,5.13,10.35,10.92,10.77v-10.77Z" fill="#fff" fill-rule="evenodd" stroke-width="0"/><circle cx="493.07" cy="77.5" r="19.5" fill="#1b1b1b" stroke-width="0"/><path d="M493.07,84.76c-.97,0-1.8-.21-2.51-.63-.71-.42-1.27-1.01-1.63-1.72-.38-.73-.66-1.5-.83-2.3-.18-.86-.27-1.74-.26-2.62,0-.7.05-1.36.14-2,.09-.63.26-1.28.5-1.94.25-.66.56-1.22.95-1.7.4-.49.92-.89,1.51-1.17.62-.3,1.34-.45,2.13-.45.97,0,1.8.21,2.51.63.71.42,1.27,1.01,1.63,1.72.38.72.66,1.49.83,2.3.17.81.26,1.68.26,2.62,0,.7-.05,1.36-.14,2-.1.66-.27,1.31-.51,1.94-.25.66-.57,1.22-.95,1.7-.38.48-.88.87-1.5,1.17-.62.3-1.34.45-2.13.45ZM494.91,79.43c.5-.5.78-1.2.77-1.92,0-.75-.25-1.39-.75-1.92-.5-.53-1.12-.8-1.87-.8s-1.37.27-1.87.8c-.49.51-.76,1.2-.75,1.92,0,.75.25,1.39.75,1.92.5.53,1.12.8,1.87.8s1.36-.27,1.85-.8ZM493.07,88.39c5.78,0,10.47-4.88,10.47-10.89s-4.69-10.89-10.47-10.89-10.47,4.88-10.47,10.89,4.69,10.89,10.47,10.89Z" fill="#fff" stroke-width="0"/><circle cx="493.07" cy="165.51" r="19.5" fill="url(#d)" stroke-width="0"/><path id="e" d="M492.85,152c-1.08,0-2.12.1-3.02.26-2.68.47-3.17,1.46-3.17,3.29v2.41h6.33v.8h-8.71c-1.84,0-3.45,1.11-3.95,3.21-.58,2.41-.61,3.92,0,6.43.45,1.87,1.52,3.21,3.36,3.21h2.18v-2.89c0-2.09,1.81-3.93,3.95-3.93h6.32c1.76,0,3.17-1.45,3.17-3.22v-6.03c0-1.72-1.45-3-3.17-3.29-1.09-.18-2.22-.26-3.3-.26ZM489.43,153.94c.65,0,1.19.54,1.19,1.21,0,.66-.53,1.2-1.19,1.2-.66,0-1.19-.54-1.19-1.2s.53-1.21,1.19-1.21Z" fill="#d1d3d4" stroke-width="0"/><path id="f" d="M500.11,158.77v2.81c0,2.18-1.85,4.01-3.95,4.01h-6.32c-1.73,0-3.17,1.48-3.17,3.22v6.03c0,1.72,1.49,2.72,3.17,3.22,2,.59,3.93.7,6.32,0,1.59-.46,3.17-1.39,3.17-3.22v-2.41h-6.32v-.8h9.49c1.84,0,2.53-1.28,3.17-3.21.66-1.98.63-3.89,0-6.43-.45-1.83-1.32-3.21-3.17-3.21h-2.38ZM496.55,174.03c.66,0,1.19.54,1.19,1.2s-.53,1.21-1.19,1.21-1.19-.54-1.19-1.21.53-1.2,1.19-1.2Z" fill="#fff" stroke-width="0"/><circle cx="531.08" cy="121.69" r="19.5" fill="url(#g)" stroke-width="0"/><path d="M531.08,129.45c-7.95,0-14.4-4.32-14.4-9.64s6.45-9.64,14.4-9.64,14.4,4.32,14.4,9.64-6.45,9.64-14.4,9.64ZM533.28,113.94c-6.04,0-10.94,2.95-10.94,6.59s4.9,6.59,10.94,6.59,10.51-2.02,10.51-6.59-4.46-6.59-10.51-6.59Z" fill="#e6e7e8" fill-rule="evenodd" stroke-width="0"/><path d="M538.61,125.1s.87.26,1.38.52c.18.09.48.27.7.5.21.23.32.46.32.46l3.43,5.79h-5.55s-2.6-4.87-2.6-4.87c0,0-.53-.91-.86-1.18-.27-.22-.39-.3-.66-.3h-1.32v6.35s-4.91,0-4.91,0v-16.22h9.86s4.49.08,4.49,4.36-4.29,4.59-4.29,4.59ZM536.47,119.67h-2.97s0,2.76,0,2.76h2.98s1.38,0,1.38-1.4-1.38-1.35-1.38-1.35Z" fill="#fff" fill-rule="evenodd" stroke-width="0"/><circle cx="344.67" cy="121.69" r="18" fill="#fff" stroke-width="0"/><path d="M344.67,105.19c9.1,0,16.5,7.4,16.5,16.5s-7.4,16.5-16.5,16.5-16.5-7.4-16.5-16.5,7.4-16.5,16.5-16.5M344.67,102.19c-10.77,0-19.5,8.73-19.5,19.5s8.73,19.5,19.5,19.5,19.5-8.73,19.5-19.5-8.73-19.5-19.5-19.5h0Z" fill="#018473" stroke-width="0"/><g id="h"><g clip-path="url(#i)"><rect x="331.71" y="108.75" width="25.88" height="25.88" fill="#212121" stroke-width="0"/><rect x="331.71" y="113.71" width="25.88" height="1.11" fill="#353635" stroke-width="0"/><rect x="348.26" y="108.75" width="1.01" height="25.88" fill="#353635" stroke-width="0"/><rect x="353.68" y="107.83" width="2.01" height="25.88" fill="#353635" stroke-width="0"/><rect x="331.78" y="115.6" width="25.88" height=".73" fill="#353635" stroke-width="0"/><rect x="336.51" y="108.89" width="1.01" height="25.88" fill="#353635" stroke-width="0"/><rect x="333.12" y="128.05" width="25.88" height=".73" fill="#353635" stroke-width="0"/><rect x="328.52" y="132.19" width="25.88" height=".66" fill="#353635" stroke-width="0"/><rect x="332.23" y="130.71" width="25.88" height="1" fill="#353635" stroke-width="0"/><path d="M330.42,125.75h19.71c1.1,0,1.99,1.07,1.99,2.39v15.37" fill="none" stroke="#4a4a4a" stroke-miterlimit="10" stroke-width="1.81"/><path d="M322.29,128.57h19.98c1.12,0,2.02,1.08,2.02,2.41v15.48" fill="none" stroke="#4a4a4a" stroke-miterlimit="10" stroke-width="1.55"/><path d="M339.5,97.38v18.44c0,1.37,1.17,2.48,2.61,2.48h0c1.45,0,2.62-1.12,2.61-2.49l-.08-18.43" fill="none" stroke="#4a4a4a" stroke-miterlimit="10" stroke-width="1.81"/><path d="M372.05,119.54h-19.98c-1.12,0-2.02-1.07-2.02-2.39v-15.35" fill="none" stroke="#4a4a4a" stroke-miterlimit="10" stroke-width=".83"/><path d="M338.84,110.13c.04,4.44-.03,7.82,0,12.1,0,.92.76,1.67,1.68,1.67h15.29" fill="none" stroke="#70c48e" stroke-miterlimit="10" stroke-width=".47"/><rect x="341.15" y="123.6" width="13.69" height=".59" fill="#078472" stroke-width="0"/><path d="M366.4,120.65c-4.73.04-8.65.05-13.3.09-.44,0-.8.36-.8.81v16.16" fill="none" stroke="#7bc78f" stroke-miterlimit="10" stroke-width=".47"/><rect x="352.01" y="123.35" width=".58" height="6.41" fill="#078472" stroke-width="0"/><rect x="354.17" y="120.45" width="1.03" height=".57" fill="#078472" stroke-width="0"/><rect x="335.44" y="124.52" width=".57" height="7.55" fill="#078472" stroke-width="0"/><rect x="338.54" y="112.26" width=".57" height="7.29" fill="#078472" stroke-width="0"/><rect x="346.32" y="110.11" width=".57" height="8.97" fill="#078472" stroke-width="0"/></g><path d="M355.08,127.7v-12.02l-10.41-6.01-5.3,3.06-5.11,2.95v12.02l10.41,6.01,10.41-6.01Z" fill="none" stroke="#028373" stroke-miterlimit="10" stroke-width=".67"/><path d="M335.49,124.16v-2.42c0-.18.03-.35.1-.51s.16-.3.27-.41c.12-.12.25-.21.4-.27.15-.07.32-.1.5-.1s.34.03.49.1c.31.13.55.38.67.69.07.16.1.32.1.5,0,.18-.03.35-.1.5-.06.15-.15.29-.27.41-.11.12-.25.21-.4.28-.16.07-.32.1-.5.1-.22,0-.43-.05-.61-.15v-.46c.17.12.37.19.6.19.12,0,.24-.02.34-.06.1-.04.19-.1.26-.18.07-.08.12-.17.16-.27s.06-.22.06-.34-.02-.24-.06-.34-.09-.2-.16-.27c-.07-.08-.16-.14-.25-.18-.1-.04-.21-.06-.33-.06s-.23.02-.33.06c-.1.04-.18.1-.25.18-.07.08-.12.17-.16.27s-.06.22-.06.35v2.42h-.46Z" fill="#70c48e" stroke-width="0"/><path d="M341.82,122.98h-.89c-.38,0-.66-.06-.82-.17-.15-.1-.24-.22-.28-.36-.04-.14-.06-.32-.06-.55v-1.4h.45v1.39c0,.06,0,.11,0,.16s.02.1.04.17c.02.07.05.12.09.17.04.04.09.08.17.11.07.03.16.05.26.05h.59v-2.05h.45v2.48Z" fill="#70c48e" stroke-width="0"/><path d="M342.5,120.5h2.28c.24,0,.44.05.58.14.15.09.25.21.29.36.05.15.07.33.07.53v1.45h-.45v-1.45c0-.27-.08-.45-.24-.53-.08-.04-.25-.07-.5-.07h-.21v2.05h-.45v-2.05h-.9v2.05h-.45v-2.48Z" fill="#70c48e" stroke-width="0"/><path d="M346.34,119.36h.46v2.38c0,.27.07.48.21.63.14.15.33.22.58.22.25,0,.45-.07.6-.22.14-.15.22-.36.22-.64,0-.27-.08-.47-.24-.63-.16-.15-.36-.23-.62-.23-.22,0-.4.06-.56.19v-.46c.19-.1.39-.15.61-.15.36,0,.67.12.91.35.24.24.36.55.36.94,0,.41-.12.73-.37.95-.25.23-.56.34-.94.34-.36,0-.65-.12-.88-.35s-.34-.55-.34-.94v-2.38Z" fill="#70c48e" stroke-width="0"/><path d="M350.63,120.45c.59.02.88.27.88.73,0,.58-.38.86-1.13.86h-.21v-.4h.25c.23,0,.39-.04.48-.11.09-.07.13-.19.13-.35,0-.11-.04-.19-.12-.24-.08-.05-.18-.08-.3-.08-.24,0-.44.09-.58.26-.14.17-.21.38-.21.62,0,.25.07.46.22.62.15.16.35.24.59.24.22,0,.39-.05.53-.16l.31.3c-.24.19-.52.29-.84.29-.39,0-.71-.12-.94-.35s-.35-.53-.35-.89c0-.41.12-.74.35-.99s.55-.37.95-.36Z" fill="#70c48e" stroke-width="0"/><rect x="338.29" y="119.08" width="1.07" height=".47" rx=".02" ry=".02" fill="#078472" stroke-width="0"/><rect x="340.69" y="123.35" width=".47" height="1.07" rx=".02" ry=".02" fill="#078472" stroke-width="0"/><rect x="351.77" y="123.06" width="1.07" height=".55" rx=".02" ry=".02" fill="#078472" stroke-width="0"/><rect x="353.94" y="120.17" width=".47" height="1.07" rx=".02" ry=".02" fill="#078472" stroke-width="0"/><rect x="335.2" y="124.15" width="1.07" height=".47" rx=".02" ry=".02" fill="#078472" stroke-width="0"/><rect x="346.06" y="119.08" width="1.07" height=".47" rx=".02" ry=".02" fill="#078472" stroke-width="0"/></g><line x1="61.4" y1="76.5" x2="95.87" y2="102.95" fill="none" stroke="#d1d3d4" stroke-width="5"/><polygon points="89.58 107.55 104.4 109.5 98.68 95.68 89.58 107.55" fill="#d1d3d4" stroke-width="0"/><line x1="50.4" y1="121.5" x2="89.64" y2="121.5" fill="none" stroke="#d1d3d4" stroke-width="5"/><polygon points="87.45 128.98 100.4 121.5 87.45 114.02 87.45 128.98" fill="#d1d3d4" stroke-width="0"/><line x1="61.4" y1="166.5" x2="96.61" y2="141.7" fill="none" stroke="#d1d3d4" stroke-width="5"/><polygon points="99.12 149.07 105.4 135.5 90.51 136.85 99.12 149.07" fill="#d1d3d4" stroke-width="0"/><circle cx="121.37" cy="121.69" r="19.5" fill="#67469c" stroke-width="0"/><rect x="128.37" y="112.99" width="5.6" height="17.4" rx=".61" ry=".61" fill="#fff"/><g clip-path="url(#j)"><rect x="125.53" y="112.56" width="11.27" height="18.26" transform="translate(-34 52.89) rotate(-20.24)" fill="#fff" stroke-width="0"/></g><path d="M116.11,113.21l-7.27,14.46c-.15.3-.03.66.27.81l3.92,1.97c.3.15.66.03.81-.27l7.27-14.46c.15-.3.03-.66-.27-.81l-3.92-1.97c-.09-.04-.18-.06-.27-.06-.22,0-.43.12-.54.33" fill="#fff"/><g clip-path="url(#k)"><rect x="105.69" y="111.11" width="18.57" height="21.26" transform="translate(-38.87 55.62) rotate(-23.38)" fill="#fff" stroke-width="0"/></g><path d="M122.23,113.26l-3.11,15.76c-.06.33.15.64.47.71l4.3.87c.33.07.65-.15.71-.48l3.11-15.76c.06-.33-.15-.64-.47-.71l-4.3-.87s-.08-.01-.12-.01c-.28,0-.54.2-.59.49" fill="#fff"/><g clip-path="url(#l)"><rect x="116.23" y="111.81" width="14.37" height="19.81" transform="translate(-34.45 50.13) rotate(-20.21)" fill="#fff" stroke-width="0"/></g><path d="M107.16,146.08h1.26l2.97,7.24h.1l2.97-7.24h1.26v8.73h-.99v-6.63h-.09l-2.73,6.63h-.95l-2.73-6.63h-.09v6.63h-.99v-8.73Z" fill="#231f20" stroke-width="0"/><path d="M119.62,154.96c-.42,0-.79-.08-1.13-.24-.34-.16-.61-.39-.81-.69-.2-.3-.3-.66-.3-1.09,0-.38.07-.68.22-.91.15-.23.34-.42.59-.55.25-.13.52-.23.82-.3.3-.07.6-.12.91-.16.4-.05.72-.09.97-.12.25-.03.43-.07.55-.14.11-.07.17-.18.17-.34v-.03c0-.42-.11-.75-.34-.98-.23-.23-.57-.35-1.04-.35s-.86.11-1.13.32c-.27.21-.46.43-.58.67l-.95-.34c.17-.4.4-.71.68-.93.29-.22.6-.38.94-.47.34-.09.67-.13,1-.13.21,0,.45.03.73.08.27.05.54.15.8.3.26.15.47.39.64.69.17.31.26.72.26,1.24v4.31h-1.01v-.89h-.05c-.07.14-.18.29-.34.46s-.37.3-.63.41-.59.17-.97.17ZM119.78,154.06c.4,0,.73-.08,1.01-.23.27-.16.48-.36.62-.6s.21-.51.21-.78v-.92c-.04.05-.14.1-.28.14-.14.04-.31.08-.49.11-.19.03-.37.06-.54.08-.17.02-.32.04-.42.05-.26.03-.5.09-.73.16-.23.08-.41.19-.55.34-.14.15-.21.35-.21.61,0,.35.13.61.39.79s.59.27.99.27Z" fill="#231f20" stroke-width="0"/><path d="M124.46,154.81v-8.73h1.01v8.73h-1.01ZM125.4,152.42l-.02-1.25h.2l2.86-2.91h1.24l-3.05,3.08h-.08l-1.16,1.07ZM128.62,154.81l-2.56-3.24.72-.7,3.12,3.94h-1.28Z" fill="#231f20" stroke-width="0"/><path d="M133.46,154.94c-.63,0-1.17-.14-1.63-.42-.46-.28-.81-.67-1.05-1.18-.25-.5-.37-1.09-.37-1.76s.12-1.26.37-1.78c.25-.51.59-.91,1.03-1.2.44-.29.96-.43,1.55-.43.34,0,.68.06,1.01.17.33.11.64.3.91.55.27.25.49.59.65,1.01.16.42.24.93.24,1.54v.43h-5.05v-.87h4.02c0-.37-.07-.7-.22-.99-.15-.29-.35-.52-.62-.69-.27-.17-.58-.25-.95-.25-.4,0-.75.1-1.04.3-.29.2-.52.45-.67.77-.16.32-.23.65-.23,1.01v.58c0,.5.09.91.26,1.26s.41.6.72.78.66.27,1.07.27c.26,0,.5-.04.72-.11.21-.08.4-.19.56-.34s.28-.34.36-.57l.97.27c-.1.33-.27.62-.52.87-.24.25-.54.44-.9.58-.36.14-.75.21-1.2.21Z" fill="#231f20" stroke-width="0"/><circle cx="61.03" cy="77.19" r="19.5" fill="#f7941d" stroke-width="0"/><path d="M60.97,64.81c-6.63.03-11.97,5.43-11.94,12.06.03,6.63,5.43,11.97,12.06,11.94,6.63-.03,11.97-5.43,11.94-12.06-.03-6.58-5.36-11.9-11.94-11.94h-.12Z" fill="none" stroke="#fff" stroke-width="1.6"/><path d="M61.03,64.81v24M73.03,76.81h-24M51.74,69.42c5.56,3.97,13.02,3.97,18.58,0M70.32,84.19c-5.56-3.97-13.02-3.97-18.58,0M60.11,65.12c-6.49,5.48-7.31,15.19-1.83,21.68.56.66,1.17,1.27,1.83,1.83M61.95,88.62c6.49-5.48,7.31-15.19,1.83-21.68-.56-.66-1.17-1.27-1.83-1.83" fill="none" stroke="#fff" stroke-width="1.11"/><circle cx="50.53" cy="121.69" r="19.5" fill="#da1c5c" stroke-width="0"/><path d="M50.47,109.31c-6.63.03-11.97,5.43-11.94,12.06.03,6.63,5.43,11.97,12.06,11.94,6.63-.03,11.97-5.43,11.94-12.06-.03-6.58-5.36-11.9-11.94-11.94h-.12Z" fill="none" stroke="#fff" stroke-width="1.6"/><path d="M50.53,109.31v24M62.53,121.31h-24M41.24,113.92c5.56,3.97,13.02,3.97,18.58,0M59.82,128.69c-5.56-3.97-13.02-3.97-18.58,0M49.61,109.62c-6.49,5.48-7.31,15.19-1.83,21.68.56.66,1.17,1.27,1.83,1.83M51.45,133.12c6.49-5.48,7.31-15.19,1.83-21.68-.56-.66-1.17-1.27-1.83-1.83" fill="none" stroke="#fff" stroke-width="1.11"/><circle cx="61.03" cy="166.19" r="19.5" fill="#f9ed32" stroke-width="0"/><path d="M60.97,153.81c-6.63.03-11.97,5.43-11.94,12.06.03,6.63,5.43,11.97,12.06,11.94,6.63-.03,11.97-5.43,11.94-12.06-.03-6.58-5.36-11.9-11.94-11.94h-.12Z" fill="none" stroke="#fff" stroke-width="1.6"/><path d="M61.03,153.81v24M73.03,165.81h-24M51.74,158.42c5.56,3.97,13.02,3.97,18.58,0M70.32,173.19c-5.56-3.97-13.02-3.97-18.58,0M60.11,154.12c-6.49,5.48-7.31,15.19-1.83,21.68.56.66,1.17,1.27,1.83,1.83M61.95,177.62c6.49-5.48,7.31-15.19,1.83-21.68-.56-.66-1.17-1.27-1.83-1.83" fill="none" stroke="#fff" stroke-width="1.11"/><path d="M317.53,151.14v-.53c.47,0,.81-.1.99-.3.19-.2.28-.53.28-1v-1.36c0-.39.04-.73.11-1.02.08-.29.2-.52.37-.71.17-.19.4-.33.68-.42.28-.09.63-.14,1.05-.14v.83c-.33,0-.59.05-.78.15-.19.1-.32.26-.4.48s-.12.49-.12.82v1.7c0,.22-.03.42-.09.61-.06.18-.17.34-.32.47-.16.13-.38.23-.67.3-.29.07-.66.11-1.12.11ZM317.53,151.64v-1.02h1v1.02h-1ZM321.02,156.58c-.42,0-.77-.05-1.05-.14s-.51-.23-.68-.42c-.17-.19-.29-.42-.37-.71s-.11-.63-.11-1.02v-1.36c0-.46-.09-.8-.28-1-.19-.2-.52-.3-.99-.3v-.53c.46,0,.83.04,1.12.11.29.07.51.17.67.3s.26.29.32.47c.06.18.09.38.09.61v1.7c0,.33.04.6.12.82.08.21.21.37.4.48.19.1.45.16.78.16v.84Z" fill="#231f20" stroke-width="0"/><path d="M322.35,157.26v-9h.97v1.04h.12c.07-.11.18-.26.31-.44.13-.18.32-.34.57-.48.25-.14.59-.21,1.01-.21.55,0,1.04.14,1.46.41.42.28.75.67.98,1.17.24.51.35,1.1.35,1.79s-.12,1.29-.35,1.8c-.24.51-.56.9-.98,1.18-.42.28-.9.42-1.45.42-.42,0-.76-.07-1.01-.21s-.45-.3-.58-.48c-.14-.18-.24-.33-.32-.45h-.08v3.46h-1.01ZM323.34,151.53c0,.5.07.93.22,1.31.15.38.36.67.63.88s.62.32,1.02.32.77-.11,1.05-.33c.28-.22.5-.52.64-.9.14-.38.22-.8.22-1.27s-.07-.88-.21-1.25c-.14-.37-.35-.67-.64-.88-.28-.22-.64-.33-1.06-.33s-.75.1-1.03.31c-.28.21-.49.49-.63.86-.14.37-.21.8-.21,1.28Z" fill="#231f20" stroke-width="0"/><path d="M330.67,146.08v8.73h-1.01v-8.73h1.01Z" fill="#231f20" stroke-width="0"/><path d="M336.64,152.13v-3.87h1.01v6.54h-1.01v-1.11h-.07c-.15.33-.39.61-.72.85-.32.23-.73.35-1.23.35-.41,0-.77-.09-1.09-.27-.32-.18-.57-.45-.75-.82-.18-.37-.27-.83-.27-1.38v-4.16h1.01v4.09c0,.48.13.86.4,1.14.27.29.61.43,1.03.43.25,0,.5-.06.76-.19.26-.13.48-.32.66-.59.18-.26.27-.6.27-1.01Z" fill="#231f20" stroke-width="0"/><path d="M339.48,154.81v-6.54h.97v1.02h.08c.14-.35.36-.62.66-.82.3-.2.67-.29,1.1-.29s.79.1,1.08.29c.29.19.51.47.68.82h.07c.17-.34.42-.61.75-.81.33-.2.74-.3,1.21-.3.58,0,1.06.18,1.44.55s.56.93.56,1.7v4.38h-1.01v-4.38c0-.48-.13-.83-.4-1.04-.26-.21-.58-.31-.93-.31-.46,0-.82.14-1.07.42-.25.28-.38.63-.38,1.05v4.26h-1.02v-4.48c0-.37-.12-.67-.36-.9-.24-.23-.55-.34-.93-.34-.26,0-.5.07-.73.21-.23.14-.41.33-.55.58s-.21.53-.21.85v4.09h-1.01Z" fill="#231f20" stroke-width="0"/><path d="M350.05,154.81v-8.73h1.01v3.22h.09c.07-.11.18-.26.31-.44s.32-.34.57-.48c.25-.14.59-.21,1.01-.21.55,0,1.04.14,1.46.41.42.28.75.67.98,1.17.24.51.35,1.1.35,1.79s-.12,1.29-.35,1.8c-.24.51-.56.9-.98,1.18-.42.28-.9.42-1.45.42-.42,0-.76-.07-1.01-.21s-.45-.3-.58-.48c-.14-.18-.24-.33-.31-.45h-.12v1.01h-.97ZM351.04,151.53c0,.5.07.93.22,1.31.15.38.36.67.64.88.28.21.62.32,1.02.32s.77-.11,1.05-.33c.28-.22.5-.52.64-.9.14-.38.22-.8.22-1.27s-.07-.88-.21-1.25c-.14-.37-.35-.67-.63-.88-.28-.22-.64-.33-1.06-.33s-.75.1-1.03.31c-.28.21-.49.49-.63.86-.14.37-.21.8-.21,1.28Z" fill="#231f20" stroke-width="0"/><path d="M360.11,154.94c-.63,0-1.17-.14-1.63-.42-.46-.28-.81-.67-1.05-1.18-.25-.5-.37-1.09-.37-1.76s.12-1.26.37-1.78c.25-.51.59-.91,1.03-1.2.44-.29.96-.43,1.55-.43.34,0,.68.06,1.01.17.33.11.63.3.91.55.27.25.49.59.65,1.01s.24.93.24,1.54v.43h-5.05v-.87h4.02c0-.37-.07-.7-.22-.99-.15-.29-.35-.52-.62-.69-.27-.17-.58-.25-.95-.25-.4,0-.75.1-1.04.3-.29.2-.51.45-.67.77-.16.32-.23.65-.23,1.01v.58c0,.5.09.91.26,1.26s.41.6.72.78.66.27,1.07.27c.26,0,.5-.04.72-.11.21-.08.4-.19.56-.34s.28-.34.36-.57l.97.27c-.1.33-.27.62-.52.87s-.54.44-.89.58c-.36.14-.75.21-1.2.21Z" fill="#231f20" stroke-width="0"/><path d="M364.35,154.81v-6.54h.97v.99h.07c.12-.32.33-.59.65-.79s.67-.3,1.06-.3c.07,0,.17,0,.28,0,.11,0,.19,0,.25.01v1.02s-.11-.02-.23-.04c-.12-.02-.25-.03-.38-.03-.32,0-.6.07-.85.2-.25.13-.44.31-.59.55-.14.23-.21.49-.21.79v4.14h-1.01Z" fill="#231f20" stroke-width="0"/><path d="M368.31,145.67c.42,0,.77.05,1.05.14.28.09.51.23.68.42s.29.42.37.71c.08.29.11.63.11,1.02v1.36c0,.47.09.8.28,1,.19.2.52.3,1,.3v.53c-.46,0-.83-.04-1.12-.11-.29-.07-.51-.17-.67-.3-.16-.13-.26-.29-.32-.47-.06-.18-.09-.38-.09-.61v-1.7c0-.33-.04-.61-.12-.82-.08-.21-.21-.37-.4-.48-.19-.1-.45-.15-.78-.15v-.83ZM371.8,151.11v.53c-.47,0-.81.1-1,.3-.19.2-.28.53-.28,1v1.36c0,.39-.04.73-.11,1.02s-.2.52-.37.71-.4.33-.68.42c-.28.09-.63.14-1.05.14v-.84c.33,0,.59-.05.78-.16.19-.1.32-.26.4-.48.08-.21.12-.49.12-.82v-1.7c0-.22.03-.42.09-.61s.17-.34.32-.47c.16-.13.38-.23.67-.3s.66-.11,1.12-.11ZM371.8,150.61v1.02h-1.01v-1.02h1.01Z" fill="#231f20" stroke-width="0"/><path d="M442.11,150.81c0,.84-.15,1.57-.46,2.19-.3.62-.72,1.09-1.25,1.42-.53.33-1.14.5-1.82.5s-1.29-.17-1.82-.5c-.53-.33-.95-.81-1.25-1.42-.3-.61-.46-1.34-.46-2.19s.15-1.57.46-2.19c.3-.61.72-1.09,1.25-1.42.53-.33,1.14-.5,1.82-.5s1.29.17,1.82.5c.53.33.95.81,1.25,1.42.3.62.46,1.34.46,2.19ZM441.17,150.81c0-.69-.12-1.28-.35-1.75s-.54-.84-.93-1.08c-.39-.24-.83-.37-1.31-.37s-.92.12-1.31.37c-.39.25-.7.61-.93,1.08s-.35,1.06-.35,1.75.12,1.28.35,1.75.54.84.93,1.08c.39.25.83.37,1.31.37s.92-.12,1.31-.37c.39-.24.7-.61.93-1.08s.35-1.06.35-1.75ZM438.26,152.31h1.06l.89,1.17.23.31,1.33,1.77h-1.06l-.88-1.17-.22-.3-1.36-1.78Z" fill="#231f20" stroke-width="0"/><path d="M447.39,152.35v-3.55h.92v6h-.92v-1.02h-.06c-.14.3-.36.56-.66.78-.3.21-.67.32-1.12.32-.38,0-.71-.08-1-.25-.29-.17-.52-.42-.69-.75-.17-.33-.25-.76-.25-1.27v-3.81h.92v3.75c0,.44.12.79.37,1.05.25.26.56.39.94.39.23,0,.46-.06.7-.18s.44-.3.6-.54.24-.55.24-.93Z" fill="#231f20" stroke-width="0"/><path d="M451.76,154.95c-.38,0-.73-.07-1.04-.22s-.56-.35-.74-.63c-.18-.27-.27-.61-.27-1,0-.34.07-.62.2-.84s.32-.38.54-.51c.23-.12.48-.21.75-.28.27-.06.55-.11.83-.15.36-.05.66-.08.89-.11.23-.02.39-.07.5-.13.11-.06.16-.16.16-.31v-.03c0-.38-.1-.68-.31-.9-.21-.21-.53-.32-.95-.32s-.79.1-1.04.29c-.25.19-.43.4-.53.62l-.88-.31c.16-.36.37-.65.63-.85.26-.2.55-.35.86-.43s.62-.12.92-.12c.19,0,.42.02.67.07.25.05.5.14.73.28s.43.35.59.64c.16.28.23.66.23,1.14v3.95h-.92v-.81h-.05c-.06.13-.17.27-.31.42s-.34.28-.58.38c-.24.1-.54.16-.89.16ZM451.9,154.12c.36,0,.67-.07.92-.21.25-.14.44-.33.57-.55s.19-.46.19-.71v-.84s-.12.09-.26.13c-.13.04-.28.07-.45.1s-.34.05-.5.07-.29.04-.39.05c-.24.03-.46.08-.67.15-.21.07-.37.17-.5.31s-.19.32-.19.56c0,.32.12.56.36.72.24.16.54.24.91.24Z" fill="#231f20" stroke-width="0"/><path d="M456.2,154.81v-6h.89v.91h.06c.11-.3.31-.54.59-.72.29-.18.61-.28.97-.28.07,0,.15,0,.25,0,.1,0,.18,0,.23.01v.94s-.1-.02-.21-.04c-.11-.02-.23-.03-.35-.03-.29,0-.55.06-.78.18s-.41.29-.54.5c-.13.21-.2.45-.2.72v3.8h-.92Z" fill="#231f20" stroke-width="0"/><path d="M463.28,148.81v.78h-3.11v-.78h3.11ZM461.07,147.37h.92v5.72c0,.26.04.46.12.58.08.13.18.21.3.26s.25.06.38.06c.1,0,.19,0,.25-.02.07-.01.12-.02.16-.03l.19.83c-.06.02-.15.05-.26.07-.11.03-.25.04-.43.04-.26,0-.51-.06-.76-.17-.25-.11-.45-.28-.62-.51-.16-.23-.24-.52-.24-.87v-5.97Z" fill="#231f20" stroke-width="0"/><path d="M467.04,154.93c-.54,0-1.02-.13-1.42-.39-.41-.26-.72-.62-.95-1.08-.23-.46-.34-1-.34-1.62s.11-1.17.34-1.64c.23-.47.55-.83.95-1.09.41-.26.88-.39,1.42-.39s1.02.13,1.42.39c.41.26.73.62.95,1.09.23.47.34,1.01.34,1.64s-.11,1.16-.34,1.62c-.23.46-.54.82-.95,1.08-.41.26-.88.39-1.42.39ZM467.04,154.1c.41,0,.75-.11,1.02-.32s.46-.49.59-.83c.13-.34.19-.72.19-1.12s-.06-.77-.19-1.12c-.13-.35-.32-.63-.59-.84-.27-.21-.6-.32-1.02-.32s-.75.11-1.02.32c-.27.21-.46.49-.59.84-.13.35-.19.72-.19,1.12s.06.77.19,1.12c.13.34.32.62.59.83s.6.32,1.02.32Z" fill="#231f20" stroke-width="0"/><path d="M490.4,105.81c0,.84-.15,1.57-.46,2.19s-.72,1.09-1.25,1.42-1.14.5-1.82.5-1.29-.17-1.82-.5-.95-.81-1.25-1.42-.46-1.34-.46-2.19.15-1.57.46-2.19.72-1.09,1.25-1.42,1.14-.5,1.82-.5,1.29.17,1.82.5.95.81,1.25,1.42.46,1.34.46,2.19ZM489.46,105.81c0-.69-.12-1.28-.35-1.75s-.54-.84-.93-1.08-.83-.37-1.31-.37-.92.12-1.31.37-.7.61-.93,1.08-.35,1.06-.35,1.75.12,1.28.35,1.75.54.84.93,1.08.83.37,1.31.37.92-.12,1.31-.37.7-.61.93-1.08.35-1.06.35-1.75Z" fill="#231f20" stroke-width="0"/><path d="M495.08,101.81h.97v5.72c0,.51-.09.94-.28,1.3s-.45.63-.79.81-.74.28-1.21.28c-.44,0-.83-.08-1.17-.24s-.61-.39-.8-.69-.29-.65-.29-1.06h.95c0,.23.06.42.17.59s.27.3.47.39.42.14.68.14c.28,0,.52-.06.71-.18s.34-.29.45-.52.15-.51.15-.84v-5.72Z" fill="#231f20" stroke-width="0"/><path d="M502.36,103.81c-.05-.4-.24-.7-.57-.92-.33-.22-.74-.33-1.23-.33-.35,0-.66.06-.93.17-.26.11-.47.27-.62.47-.15.2-.22.43-.22.68,0,.21.05.4.15.55.1.15.24.28.4.38.16.1.33.18.51.25.18.06.34.12.49.15l.81.22c.21.05.44.13.7.23.26.1.5.23.74.39.24.17.43.38.58.63.15.26.23.57.23.95,0,.43-.11.82-.34,1.17-.22.35-.55.63-.98.83-.43.21-.95.31-1.57.31-.57,0-1.07-.09-1.49-.28s-.75-.44-.98-.77-.37-.71-.4-1.15h1c.03.3.13.55.31.75.18.2.41.34.68.44.28.1.57.14.89.14.37,0,.7-.06,1-.18.29-.12.53-.29.7-.51s.26-.47.26-.76c0-.27-.07-.48-.22-.65s-.34-.3-.59-.41-.5-.2-.79-.27l-.98-.28c-.62-.18-1.12-.44-1.48-.77-.36-.33-.55-.77-.55-1.31,0-.45.12-.84.37-1.17.24-.33.57-.6.98-.78.41-.19.88-.28,1.38-.28s.97.09,1.38.28c.4.18.72.43.96.75.24.32.36.68.37,1.08h-.94Z" fill="#231f20" stroke-width="0"/><path d="M475.96,198.81v-8h2.7c.63,0,1.14.11,1.54.34.4.23.7.53.89.91.19.38.29.81.29,1.28s-.1.9-.29,1.29c-.19.39-.49.69-.88.92-.4.23-.91.34-1.53.34h-1.94v-.86h1.91c.43,0,.77-.07,1.04-.22.26-.15.45-.35.57-.6.12-.25.18-.54.18-.86s-.06-.61-.18-.86c-.12-.25-.31-.45-.57-.6-.26-.14-.61-.22-1.05-.22h-1.7v7.14h-.97Z" fill="#231f20" stroke-width="0"/><path d="M483.41,201.04c-.16,0-.3-.01-.42-.04-.12-.02-.21-.05-.25-.07l.23-.81c.34.09.62.08.84,0,.22-.09.42-.36.58-.81l.17-.47-2.22-6.03h1l1.66,4.78h.06l1.66-4.78,1.01.02-2.55,6.86c-.12.3-.26.56-.43.76-.17.2-.37.35-.59.45-.22.1-.47.15-.75.15Z" fill="#231f20" stroke-width="0"/><path d="M491.56,192.81v.78h-3.11v-.78h3.11ZM489.35,191.37h.92v5.72c0,.26.04.46.12.58.08.13.18.21.3.26s.25.06.38.06c.1,0,.18,0,.25-.02.06-.01.12-.02.16-.03l.19.83c-.06.02-.15.05-.26.07-.11.03-.25.04-.43.04-.26,0-.52-.06-.76-.17-.25-.11-.46-.28-.62-.51-.16-.23-.24-.52-.24-.87v-5.97Z" fill="#231f20" stroke-width="0"/><path d="M493.99,195.2v3.61h-.92v-8h.92v2.94h.08c.14-.31.35-.56.63-.74s.66-.28,1.13-.28c.41,0,.77.08,1.07.24.31.16.55.41.72.75.17.33.26.76.26,1.28v3.81h-.92v-3.75c0-.48-.12-.85-.37-1.11s-.59-.39-1.02-.39c-.3,0-.57.06-.81.19-.24.13-.43.31-.56.56-.14.25-.21.54-.21.89Z" fill="#231f20" stroke-width="0"/><path d="M502.01,198.93c-.54,0-1.02-.13-1.42-.39s-.73-.62-.95-1.08c-.23-.46-.34-1-.34-1.62s.11-1.17.34-1.64c.23-.47.55-.83.95-1.09s.88-.39,1.42-.39,1.02.13,1.42.39.73.62.95,1.09c.23.47.34,1.01.34,1.64s-.11,1.16-.34,1.62c-.23.46-.55.82-.95,1.08s-.88.39-1.42.39ZM502.01,198.1c.41,0,.75-.11,1.02-.32s.46-.49.59-.83.19-.72.19-1.12-.06-.77-.19-1.12c-.13-.35-.32-.63-.59-.84-.27-.21-.6-.32-1.02-.32s-.75.11-1.02.32c-.27.21-.46.49-.59.84-.13.35-.19.72-.19,1.12s.06.77.19,1.12.32.62.59.83.6.32,1.02.32Z" fill="#231f20" stroke-width="0"/><path d="M507.06,195.2v3.61h-.92v-6h.89v.94h.08c.14-.3.35-.55.64-.74.29-.19.66-.28,1.11-.28.41,0,.76.08,1.07.25.3.17.54.42.71.75.17.33.25.76.25,1.27v3.81h-.92v-3.75c0-.47-.12-.84-.37-1.1-.25-.26-.58-.4-1.01-.4-.29,0-.56.06-.79.19-.23.13-.41.31-.54.56-.13.25-.2.54-.2.89Z" fill="#231f20" stroke-width="0"/><path d="M528.58,154.81v-8.73h2.95c.68,0,1.24.12,1.68.35.44.23.76.55.97.95.21.4.32.86.32,1.38s-.11.97-.32,1.37c-.21.4-.53.71-.97.93-.44.23-.99.34-1.67.34h-2.39v-.96h2.35c.47,0,.84-.07,1.13-.21.29-.14.49-.33.62-.58.13-.25.19-.55.19-.9s-.07-.65-.2-.92c-.13-.26-.34-.46-.63-.61-.29-.14-.67-.21-1.14-.21h-1.86v7.79h-1.06ZM532.69,150.89l2.15,3.92h-1.23l-2.11-3.92h1.19Z" fill="#231f20" stroke-width="0"/></g></svg>